/* XPM */
static char *_9aac9de761645b59303e302589a28aetVytZAksX3qwdTtN[] = {
/* columns rows colors chars-per-pixel */
"65 65 218 2 ",
"   c None",
".  c #220F07",
"X  c #2B140D",
"o  c #2B150C",
"O  c #30130E",
"+  c #271511",
"@  c #2A1512",
"#  c #2D1B13",
"$  c #251C11",
"%  c #321712",
"&  c #331C14",
"*  c #391D17",
"=  c #3B1E19",
"-  c #330E0A",
";  c #2B2412",
":  c #2A2B12",
">  c #252F12",
",  c #332214",
"<  c #3C2416",
"1  c #3E2119",
"2  c #3D2A18",
"3  c #3D2D17",
"4  c #273A11",
"5  c #283412",
"6  c #441E18",
"7  c #511D0F",
"8  c #512008",
"9  c #44241C",
"0  c #4A271E",
"q  c #432C1B",
"w  c #4B2A1D",
"e  c #432117",
"r  c #54251D",
"t  c #542C1E",
"y  c #5E2712",
"u  c #4A321D",
"i  c #493418",
"p  c #5F3C1C",
"a  c #493500",
"s  c #652E0B",
"d  c #64370E",
"f  c #6B3618",
"g  c #733B12",
"h  c #713A16",
"j  c #4D2921",
"k  c #532D24",
"l  c #5B2D24",
"z  c #5A2F28",
"x  c #543223",
"c  c #5B3326",
"v  c #5B3B25",
"b  c #5C3229",
"n  c #5C3A28",
"m  c #633326",
"M  c #623C24",
"N  c #63342B",
"B  c #69362C",
"V  c #64392C",
"C  c #6C3B2E",
"Z  c #723E2F",
"A  c #6D3B31",
"S  c #663A34",
"D  c #723D32",
"F  c #783F34",
"G  c #264412",
"H  c #254B11",
"J  c #255112",
"K  c #584519",
"L  c #5F5A06",
"P  c #78410E",
"I  c #684C14",
"U  c #7C451B",
"Y  c #794B14",
"T  c #68510D",
"R  c #7B631F",
"E  c #777412",
"W  c #5A4121",
"Q  c #64402A",
"!  c #69432C",
"~  c #6E4C2C",
"^  c #624627",
"/  c #77472B",
"(  c #77542D",
")  c #654D31",
"_  c #744134",
"`  c #7A4335",
"'  c #734B32",
"]  c #7D4C30",
"[  c #7D4439",
"{  c #7D493B",
"}  c #734739",
"|  c #765232",
" . c #7C5535",
".. c #7A533A",
"X. c #7F593B",
"o. c #7E5A34",
"O. c #6E552C",
"+. c #7C6133",
"@. c #213745",
"#. c #324947",
"$. c #435B4B",
"%. c #7F5840",
"&. c #4A654C",
"*. c #4A674C",
"=. c #547D4A",
"-. c #4B6E53",
";. c #547351",
":. c #854E1B",
">. c #874719",
",. c #8C5B1C",
"<. c #88551C",
"1. c #92591F",
"2. c #8C6C1C",
"3. c #856108",
"4. c #A36D1E",
"5. c #884B26",
"6. c #895626",
"7. c #955B26",
"8. c #82473A",
"9. c #844A3C",
"0. c #894D3E",
"q. c #804637",
"w. c #8A5A31",
"e. c #84543D",
"r. c #825B3D",
"t. c #855634",
"y. c #8D6A2E",
"u. c #996525",
"i. c #9D6A25",
"p. c #9C6B2B",
"a. c #956126",
"s. c #8A6133",
"d. c #9C7035",
"f. c #A16D2A",
"g. c #A66728",
"h. c #A47227",
"j. c #A4722D",
"k. c #AB742E",
"l. c #AA792E",
"z. c #A87426",
"x. c #B87929",
"c. c #A16E31",
"v. c #A56F39",
"b. c #A57532",
"n. c #A97531",
"m. c #AD7A32",
"M. c #AD7739",
"N. c #AD7C39",
"B. c #A57938",
"V. c #B17C33",
"C. c #B57F3F",
"Z. c #8B4E41",
"A. c #834F42",
"S. c #8B5143",
"D. c #855D42",
"F. c #875344",
"G. c #945E4C",
"H. c #915643",
"J. c #995F51",
"K. c #926446",
"L. c #956F4C",
"P. c #976748",
"I. c #99754D",
"U. c #9E7951",
"Y. c #A87E47",
"T. c #B27E66",
"R. c #5C8B4B",
"E. c #59944A",
"W. c #6E9050",
"Q. c #69884F",
"!. c #BD802D",
"~. c #B48335",
"^. c #BA8534",
"/. c #B98937",
"(. c #B5833A",
"). c #BB843A",
"_. c #BD8B3B",
"`. c #B28C35",
"'. c #BF903E",
"]. c #AE9939",
"[. c #C38D3E",
"{. c #C48A36",
"}. c #C4933E",
"|. c #CA963E",
" X c #CC993E",
".X c #CE9133",
"XX c #C4A23D",
"oX c #BA8B44",
"OX c #B58745",
"+X c #BA9249",
"@X c #BB8250",
"#X c #AC8C57",
"$X c #C28740",
"%X c #C29343",
"&X c #C79941",
"*X c #CB9D43",
"=X c #CC9D4C",
"-X c #C99644",
";X c #D59F4C",
":X c #D29C44",
">X c #CFA148",
",X c #D3A64D",
"<X c #D4A447",
"1X c #DDB04F",
"2X c #CCA356",
"3X c #D3A352",
"4X c #D7AB56",
"5X c #D6AA5B",
"6X c #E0AD58",
"7X c #E0B255",
"8X c #D9B065",
"9X c #EED07E",
"0X c #EDC974",
"qX c #DDBE93",
"wX c #ECCE8A",
"eX c #F0D689",
"rX c #F8E59B",
"tX c #FBE9A6",
/* pixels */
"                                                                                                                                  ",
"                                                                                                                                  ",
"                                                                                                                                  ",
"                                                                                                                                  ",
"                                                                                                                                  ",
"                                                                                                                                  ",
"                                                                                                                                  ",
"                                                                  $.                                                              ",
"                                                                  $.                                                              ",
"                                                        #.Q.&.                                                                    ",
"                                                        #.W.*.              -.&.                                                  ",
"                                                          @.                &.$.                                                  ",
"                                                  *.            ].                                                                ",
"                                                  &.        XXf.f.i.l./.B.^ n                                                     ",
"                                                [ D _ _ D w..Xx..Xx.z.7.j.~.p t c t   -.;.                                        ",
"                                          %.B 6 6 r r t m 5.:X[._._.n.>.g 7.y.r q.L. .                                            ",
"                                          A - M s.w.] l t.(.n.j.i.i.u.:.f f f.x.}.0X=X] l                                         ",
"                                        A.D M 4X_.V.j.+XB.f.m.(././.l.,.R g.z.h.l.^.*Xy.l l c                                     ",
"                                          D w.<X:X*X_.OXu.}.<X=X%X%X(.l.i.P <.f.l.^./.E K 7 x                                     ",
"                                    R.=.  Z p.-X&X}.oX2X~.,X+Xp.p.j.n.(._.m.1.a.i.f.3.E O.l c                                     ",
"                                    R.    H.$XwXrX_.7.d._.4X).^.*X_.~.h.i./.).<.>.Y Y ~ k e                                       ",
"                                        J.A 6.9XwXoX5.d y w.1X[.|.>X&X/.l.6.6.U s g A % o                                         ",
"                                          F.S w.g.>./ ] ` 0.@X0XwX2X_.~.j.6.g 8 8 _ j . &                                         ",
"                                            V A.G.G.G.P.S.0.Z.T.qX8XN.7.5.<.U m Z V * #                                           ",
"                                              x o.o.Z C l r B F 9.K.P.H.S.{ D S j 1 % &                                           ",
"                                            D.V m _ C D B l B Z Z 8.0.8.C k j 0 9 % < ^                                           ",
"                              R.R.          r.L.%.N l N m m B B Z F q.D c j 0 9 0 M ! ^ i                                         ",
"                                            V r.L.#XD.D.} N b N N N N l k c c v ~ ( ( ^ # %                                       ",
"                                          k k t Q U.U.L.#XU.r.....D...! ' X.r.r.~ ~ K X X & =                                     ",
"                                        k n z j e v X.e.t.#XL.D.| X.K.e.' | +.O.p w & % % = = &                                   ",
"                                E.E.  j v b k k B m 0 t t B ' ' ' v M ! Q V x e % * 0 e = = = * #                                 ",
"                                    9 k V c k N Z N t B Z ` ` F D B B b l l k t e e 0 w 9 = = * ; ;                               ",
"                                    j n N l b C _ m m Z 8.S.S.Z.9.8.F S S B N z j 9 j j 9 1 * * # :                               ",
"                                    1 W b k M ! Z m B _ 8.Z.Z.Z.Z.F F D B N z z j j q j 9 9 1 * # :                               ",
"                                    9 n c k N _ C B Z / 8.0.0.9.8.F F D S N z z x j j j 9 9 * & # : 4                             ",
"                                  1 9 n k k M C C Z Z ` 0.0.9.8.F F D S N z z z j u 9 9 9 9 1 & ; : G                             ",
"                                    j j j k b C C C ! ` { { { ` F F S B N z z k u u j j 9 1 1 & ; 5 G                             ",
"                                    # 9 0 0 z N C C _ _ ` ` ` D D A B S b z k j j u q 1 1 1 & # ; 5                               ",
"                                    Q u & * k b N C Z Z D A A A S B N N z k j j u u 9 1 1 1 & , : G                               ",
"                          OXb.b.M.V._.%Xb.t 9 k b M N V S V B B N N z z z k j 0 j u 3 < < & # , 5 H                               ",
"                        +Xp.^./.~.l.f.i.k.5.e w k k z b b b N z z z z k j j j j 2 3 2 = & & , : G                                 ",
"                      &X,X^. X:X&X}./.m.1.g < 9 j j k k k k k k k k j j j j = 2 3 3 , & # # ; 4 J                                 ",
"                      h.v.7X8X4X}.^./.h.,.v + @ & * = 6 9 j j w j j j 9 9 1 1 2 3 , @ @ # ; > G                                   ",
"                      f.5.oXrXtX5Xm.h.3.T t ) ! o.s.s.( c = 9 9 9 9 9 = 1 < 2 2 , # + + $                                         ",
"                      5.M.Y.;X5XC.1.g T I OXN.b.m.m.V./.%Xp.0 = = = = = & & & # + +                                               ",
"                        v.3X3XM.>.f s a +XB.m._./.`.m.p.u.g.g # & @ # # @ @ +                                                     ",
"                            ;X{.7.>.    2X*X{.|. X X'./.k.:.d                                                                     ",
"                                        f OX).3X5X}./.m.2.I i                                                                     ",
"                                          w.$XeXrX%X7.U L K                                                                       ",
"                                              6X;Xx.>.g L                                                                         ",
"                                                                                                                                  ",
"                                                                                                                                  ",
"                                                                                                                                  ",
"                                                                                                                                  ",
"                                                                                                                                  ",
"                                                                                                                                  ",
"                                                                                                                                  ",
"                                                                                                                                  ",
"                                                                                                                                  ",
"                                                                                                                                  ",
"                                                                                                                                  ",
"                                                                                                                                  ",
"                                                                                                                                  ",
"                                                                                                                                  ",
"                                                                                                                                  "
};
