/* XPM */
static char *e7f441a504d641b1ca6e3b7f215707959ZYg3iXoA9jMKbya[] = {
/* columns rows colors chars-per-pixel */
"65 65 190 2 ",
"   c None",
".  c #1C0E0B",
"X  c #180A07",
"o  c #1E100E",
"O  c #1F1211",
"+  c #220F0B",
"@  c #23110E",
"#  c #241513",
"$  c #261816",
"%  c #2A1917",
"&  c #251B1A",
"*  c #2C1D1B",
"=  c #281715",
"-  c #301E1B",
";  c #3D1E16",
":  c #2E201F",
">  c #32211F",
",  c #39231D",
"<  c #2E2222",
"1  c #2F2729",
"2  c #332524",
"3  c #392622",
"4  c #362826",
"5  c #392A27",
"6  c #352B2B",
"7  c #3A2D2B",
"8  c #3E302E",
"9  c #362F31",
"0  c #3C3333",
"q  c #3D3638",
"w  c #3D3A3C",
"e  c #373133",
"r  c #491C08",
"t  c #421D11",
"y  c #4C210D",
"u  c #53240D",
"i  c #5A270B",
"p  c #5D2A0E",
"a  c #4A2314",
"s  c #4D2C1D",
"d  c #472718",
"f  c #542A14",
"g  c #5B2C12",
"h  c #532D18",
"j  c #5E3118",
"k  c #622D0E",
"l  c #6A330F",
"z  c #612F12",
"x  c #653313",
"c  c #6A3513",
"v  c #6F3915",
"b  c #663619",
"n  c #6D3A1A",
"m  c #65381C",
"M  c #733B14",
"N  c #7A3F15",
"B  c #733E1A",
"V  c #713712",
"C  c #482920",
"Z  c #48322B",
"A  c #553424",
"S  c #51362C",
"D  c #53392E",
"F  c #5D3D2C",
"G  c #5C3722",
"H  c #433633",
"J  c #453937",
"K  c #4C3B36",
"L  c #443C3B",
"P  c #4A3D3A",
"I  c #543B32",
"U  c #563D35",
"Y  c #643E27",
"T  c #613F29",
"R  c #7C4217",
"E  c #75411D",
"W  c #7B441D",
"Q  c #4C413E",
"!  c #53423E",
"~  c #5B4335",
"^  c #62402B",
"/  c #6A452C",
"(  c #6B4329",
")  c #74492C",
"_  c #7B4926",
"`  c #6E4931",
"'  c #6B4E3C",
"]  c #664634",
"[  c #714B32",
"{  c #6D503E",
"}  c #73543F",
"|  c #3F3D41",
" . c #453F40",
".. c #454243",
"X. c #4B4444",
"o. c #4F4947",
"O. c #484749",
"+. c #4C4A4B",
"@. c #534643",
"#. c #5A4743",
"$. c #544946",
"%. c #5C4B46",
"&. c #534C4C",
"*. c #5A4D4B",
"=. c #5B514E",
"-. c #4F4F50",
";. c #544E50",
":. c #4E5053",
">. c #545253",
",. c #5B5454",
"<. c #5D5856",
"1. c #59565B",
"2. c #57595B",
"3. c #5C5A5C",
"4. c #555759",
"5. c #6A5142",
"6. c #7B5A41",
"7. c #615654",
"8. c #615A57",
"9. c #635D5C",
"0. c #65605E",
"q. c #5E5E62",
"w. c #615F63",
"e. c #5E6061",
"r. c #646364",
"t. c #696465",
"y. c #6B6967",
"u. c #646569",
"i. c #696668",
"p. c #67696B",
"a. c #6B6B6C",
"s. c #706D6C",
"d. c #706A67",
"f. c #6B6E72",
"g. c #646E78",
"h. c #676E77",
"j. c #726F71",
"k. c #6D7173",
"l. c #67717B",
"z. c #6A727A",
"x. c #747374",
"c. c #74767A",
"v. c #76797C",
"b. c #797B7E",
"n. c #787778",
"m. c #82461A",
"M. c #83491F",
"N. c #8C4D1D",
"B. c #814314",
"V. c #95531D",
"C. c #9C571D",
"Z. c #854C20",
"A. c #894E21",
"S. c #8D5222",
"D. c #84542F",
"F. c #935523",
"G. c #995720",
"H. c #975823",
"J. c #9B5A24",
"K. c #885830",
"L. c #A15C22",
"P. c #825E43",
"I. c #807F7F",
"U. c #767C84",
"Y. c #7B7E82",
"T. c #757E89",
"R. c #7D8085",
"E. c #77818B",
"W. c #7B838B",
"Q. c #7A8791",
"!. c #838484",
"~. c #82868B",
"^. c #83898E",
"/. c #8D8B8D",
"(. c #868C93",
"). c #898F95",
"_. c #8A9096",
"`. c #8C949B",
"'. c #8B949B",
"]. c #93999F",
"[. c #999A9D",
"{. c #8F98A0",
"}. c #939CA3",
"|. c #9E9EA1",
" X c #9CA4AA",
".X c #98A1A7",
"XX c #A2A6AA",
"oX c #A1A9AE",
"OX c #A0A3A7",
"+X c #A5ABB0",
/* pixels */
"                                                                                                                                  ",
"                                                                                                                                  ",
"                                                                                                                                  ",
"                                                                                                                                  ",
"                                                                                                                                  ",
"                                                                                                                                  ",
"                                                                                                                                  ",
"                                                                                                                                  ",
"                                                                                                                                  ",
"                                                                                                                                  ",
"                                                          - - - > > > > >                                                         ",
"                                          > P 5 H P - 7. .7. .9.,.Q ,.@.,.J =.8 5 2 #                                             ",
"                                      4 J J I.=.&.<.7 x.@.q.@.,.&.&.<.@.>.@.a.@.0.@.=.H @                                         ",
"                                  > 8 Q I.Q 3.,.J r.H e.J ;. .7.9.*.,.o.o.Q r.H e.%.j.o.@.J $                                     ",
"                                % 0.s.8 >.o.Q <.H k.H 1.J +. .+.>.q Q o.X.Q >.Q y.@.3.K k.$.Q 0 -                                 ",
"                              P 6 Q e.$.Q y.H +.4 O.7 q 5  .H 6 8 4 6 e 8 e q L O.@...=.r.H s.+.: 2                               ",
"                            < a.y.6 Q e.L Q 6 < = O . . @ . @ # # # . @ . + . O & 0 7 0.o.=.a.* ,.o.%                             ",
"                          8 8 8 e.e.7 ..L # . o 7  .7.w.s.w.w.=. .w.w.w.w.w.;.H * X O 7 4 r.e J !.>.* >                           ",
"                        % ,.b.Q % +.+.: O & >./.OX+XoX X|.|.}.Y.9.].}.|.|.oXoXXX[.n.0 X < 0 5 t.o.3 0.H                           ",
"                        * 4 <.r.o., < O 6 /.oX].R.w.7.%. .#.R.Y.,._.t.P #.=.9.j.(. XXXt.O # ..q H x.a.+.*                         ",
"                      > ,.,.: 1 :. .# 1 |..Xx.K d y u z g r b.R.;.{. .r z p t y d ,.^.+Xj.O * P y.r.X.6 :                         ",
"                      6 e.n.x.J < : # !..Xy.t p B N B J.Z.z n.Y.,.{.5.V F.F.n S.g r D W.XX$.O L 7 4 H &.L                         ",
"                      % : w ..4.>.# P  Xv.d M S.Z.m.B F.B j b.Y.=.`.%.c F.A.b G.n Z.k  .`.!.# 2 ,.y.x.2.0                         ",
"                      J <.K 6 : 1 @ i.}.%.i H.A.A.Z._ J.B f Y.Y.,.{.%.c G.A.n F.n Z.Z.t b.}.7 * q 6 : & *                         ",
"                    * O.c.k.r.0.P # n._.S M F.M.A.M.W H.B h Y.Y.,.`.*.c F.A.n G.n M.A.g 9.}.X.* ,.<.0.j.L                         ",
"                    > 4 7 0 6 L 6 & Y.W.G W S.M.A.M.W H.B f Y.Y.,.{.=.z F.A.B J.n A.A.x =.].&.- Q ..o.&.6                         ",
"                    % 0 0.y.0.&.: & Y.Y.m W F.W S.M.W H.B h U.Y.;.{.;.z G.A.n L.n M.A.c *.'.>.* 0 X.7.7.J *                       ",
"                    * 7 O.X...Q * & Y.Y.G B A.E M.W E S.n f U.Y.,.`.;.z S.Z.Y F.x W _ x $.'.&.> >.3.a.r.o.>                       ",
"                    * 2 H @.=.=.7 & b.~.q.c.a.c.a.c.a.c.a.f.~.v.;.).h.w.n.w.Y.i.c.i.c.i.k._.&.$ 6 2 4 H 7 *                       ",
"                    * 0 4.1.:.>.7 & b.W.>.t.2.t.3.u.1.r.1.q.Y.U.;.(.f.1.w.w.w.8.i.3.u.1.f._.&.* 0.r.x.n.=.*                       ",
"                      : 2 4 8 3 & * v.W.C u x i x p g x i d Y.v.;.`.,.r l k f c u g g u &.`.$.$ 6 2 1 6 2 :                       ",
"                    % ..t.0.x.x.q & c.E.F E H.W F.W W S.B Y U.c. .).1.z F.A.Y J.E M.S.M <._.o.: <.8.&.<.Q %                       ",
"                    : 9 | -.0.e.q $ f.W.T M G._ F._ M.A.W Y T.j. .].1.b F.Z.b J.n Z.S.n ,._. .> w.u.1.q...*                       ",
"                      6 0 4 8 6 * $ f.E.T M G.B V.m.m.A.N Y T.j. ._.q.c G.m.c L.M m.F.V 8._. .# 2 2 4 4 :                         ",
"                    % o.n.x.p.y. .# f.Y.~ ( ) ( D.) ) D./ ] U.f.J `.1.Y K.Y Y K.Y D.D.Y w.). .- 7.w.w.j.$.                        ",
"                    : 0 -.O.w ..9 # f.^.u.W.U.Y.h.Y.l.W.l.c.~.f. .^.j.h.^.h.T.U.W.z.W.j.U.^. .= 0 0 7 L 6 *                       ",
"                    * 7 Q H H H 2 O p.^.X.%.$.%.$.%.@.*.#.$.Y.a.H ).w. .%. .%.%.*. .7. .w._. .* ;.7.,.9.@.-                       ",
"                    * +.n.!.y.r.J + i.Q.S i M z M z c V k A W.f.H `.1.g N c k N g c V k ,.(.J 2 e.u.1.w.&.>                       ",
"                    - 1 q w 6 4 < # i.W.T M F._ F.W Z.A.R ` T.a.9 ).q.n J.Z.B L.B Z.S.B 8.(.H = < 7 7 7 : *                       ",
"                      4 P $.9.t.H O i.W.I M A.W F._ Z.A._ ` Y.a.H ).q.n F.B n J.n Z.S.n w.(.H : w.y.s.x.=.*                       ",
"                    * O.r.q.2.3.e # i.W.F V V.N V.N N.N.N ( T.i.6 ).1.M V.N V C.V B.V.l ,._.H : >.:.p.p.+.2                       ",
"                    * 2 6 7 0 H < @ w.W.#.' 6.} 6.5.} 6.} 5.T.i.3 (.w.5.P.5.5.P.' } 6.] w.(.0 = < : > 8 8 *                       ",
"                    : &.<.,.9.p.X.+ r.(.u.W.l.W.l.W.l.W.h.U.~.u.5 ^.z.h.T.U.Q.h.T.g.T.U.U.^.H = 0.x.j.y.t.2                       ",
"                    < w +.+.w | e @ r.~.P S D K D D S U S P Y.t.3 ^.q.S U S D D U S S Z q.(.0 = | +.O.q w 2                       ",
"                    * 8 Z 2 H P 5 + w.~.D k m.x m.x M N V T Y.t.3 (.1.x m.V c A.c N N z 7.(.9 = 6 H ! $.7 *                       ",
"                    4 y.b.r.w.u.$.+ w.^.T M G.B H.B S.N.m.` T.t.3 ).q.N L.W B L.Z.S.F.v 8._.Z & 3.a.n.a.1.2                       ",
"                    * 7 0 6 6 e 6 + w.R.K F ` T ` F / ] T U Y.t., (.1.F ` F F [ F T ` S ,.(.Z = 6 2 1 8 7 :                       ",
"                    4 ,.9.8.,.7.8 + w.`.W.'.'.}.{.}.{.{.'.Y.{.i., _.^.^._.{.}.}.}.}.`.(.W.`.7 = &.y.0.0.9.>                       ",
"                    2 ..>.,.+.O.7 # $.a.t.i.t.t.t.t.t.i.i.t.a.$.; r.i.t.i.t.t.t.t.i.i.y.y.t.3 % O.>.+.+.w 2                       ",
"                      % # @ # $ &                                                             : : @ $ : *                         ",
"                                                                                                                                  ",
"                                                                                                                                  ",
"                                                                                                                                  ",
"                                                                                                                                  ",
"                                                                                                                                  ",
"                                                                                                                                  ",
"                                                                                                                                  ",
"                                                                                                                                  ",
"                                                                                                                                  ",
"                                                                                                                                  ",
"                                                                                                                                  ",
"                                                                                                                                  ",
"                                                                                                                                  ",
"                                                                                                                                  ",
"                                                                                                                                  "
};
