/* XPM */
static char *_23bc72e50b342b8a0b25058fcd3e531OEMvkX5u4hRhAXq2[] = {
/* columns rows colors chars-per-pixel */
"65 65 228 2 ",
"   c None",
".  c #020202",
"X  c #0B0B0B",
"o  c #080707",
"O  c #120E0D",
"+  c #14120F",
"@  c #0C0E11",
"#  c #131312",
"$  c #1D1C1B",
"%  c #1A1915",
"&  c #0D141D",
"*  c #281A16",
"=  c #26140E",
"-  c #24221E",
";  c #2B231D",
":  c #232A18",
">  c #39241C",
",  c #0C1423",
"<  c #0D182B",
"1  c #111C2C",
"2  c #0C1C34",
"3  c #091D3A",
"4  c #000924",
"5  c #251A21",
"6  c #152438",
"7  c #1D2323",
"8  c #242423",
"9  c #2B2B28",
"0  c #372A23",
"q  c #3A332B",
"w  c #363535",
"e  c #2C322B",
"r  c #49372C",
"t  c #57362A",
"y  c #593B30",
"u  c #44362E",
"i  c #603D31",
"p  c #3F453A",
"a  c #4D4335",
"s  c #43423B",
"d  c #584A3C",
"f  c #694132",
"g  c #764B3A",
"h  c #6D503E",
"j  c #142747",
"k  c #1B314F",
"l  c #092A58",
"z  c #152D55",
"x  c #14315C",
"c  c #19355E",
"v  c #0A2549",
"b  c #282E53",
"n  c #0A3267",
"m  c #153463",
"M  c #16396A",
"N  c #193B6C",
"B  c #183766",
"V  c #183D71",
"C  c #103B77",
"Z  c #2A3266",
"A  c #461847",
"S  c #53334D",
"D  c #47387E",
"F  c #762977",
"G  c #682A6D",
"H  c #632E55",
"J  c #384B5D",
"K  c #1C447B",
"L  c #1A4477",
"P  c #254778",
"I  c #354A6F",
"U  c #474746",
"Y  c #5A564B",
"T  c #565554",
"R  c #59434B",
"E  c #695847",
"W  c #725B49",
"Q  c #6A5E52",
"!  c #74624F",
"~  c #67615C",
"^  c #796652",
"/  c #7C6A55",
"(  c #776956",
")  c #776F58",
"_  c #51506E",
"`  c #5A6171",
"'  c #666361",
"]  c #776975",
"[  c #6A5476",
"{  c #824E3B",
"}  c #812F7F",
"|  c #895743",
" . c #846F5A",
".. c #8A745C",
"X. c #91785E",
"o. c #96624D",
"O. c #AA654A",
"+. c #B4694C",
"@. c #B97558",
"#. c #B86D54",
"$. c #8C7961",
"%. c #947D64",
"&. c #967C64",
"*. c #A77065",
"=. c #A14D5A",
"-. c #D55954",
";. c #C8785A",
":. c #D27D5C",
">. c #DA6B5F",
",. c #E36F5E",
"<. c #DD7466",
"1. c #E87366",
"2. c #C6B222",
"3. c #998469",
"4. c #8F8670",
"5. c #A4886D",
"6. c #AA8D71",
"7. c #A78E71",
"8. c #AE9377",
"9. c #B29274",
"0. c #BB9C7C",
"q. c #B79878",
"w. c #BFA27E",
"e. c #B2B150",
"r. c #DA8464",
"t. c #C29D79",
"y. c #CD8E70",
"u. c #E18565",
"i. c #E68B69",
"p. c #EA9B79",
"a. c #F49672",
"s. c #E68D76",
"d. c #C9A17F",
"f. c #F4A47D",
"g. c #FBD560",
"h. c #053F87",
"j. c #3F3D81",
"k. c #5A3584",
"l. c #503989",
"z. c #792C86",
"x. c #633285",
"c. c #663D8B",
"v. c #1D4A85",
"b. c #164D8A",
"n. c #1D4D8A",
"m. c #174984",
"M. c #17518B",
"N. c #1F5091",
"B. c #224B85",
"V. c #214E8A",
"C. c #274582",
"Z. c #334284",
"A. c #394083",
"S. c #24518C",
"D. c #2A5387",
"F. c #225393",
"G. c #2C5A95",
"H. c #275B9B",
"J. c #335D97",
"K. c #32619D",
"L. c #2F609F",
"P. c #1F57A0",
"I. c #2B5EA3",
"U. c #215BA5",
"Y. c #3362A3",
"T. c #3265AA",
"R. c #2864A8",
"E. c #534087",
"W. c #60428B",
"Q. c #486892",
"!. c #6C6785",
"~. c #6A7589",
"^. c #961C93",
"/. c #851889",
"(. c #882887",
"). c #93258C",
"_. c #98248D",
"`. c #9C2592",
"'. c #992696",
"]. c #933790",
"[. c #A32797",
"{. c #9F5187",
"}. c #838B97",
"|. c #9B9596",
" X c #AA9C93",
".X c #BDAB98",
"XX c #A7A380",
"oX c #ABA7A5",
"OX c #CAA785",
"+X c #D2AE8A",
"@X c #D7A988",
"#X c #CCB28D",
"$X c #D4B28C",
"%X c #D5B686",
"&X c #D7B895",
"*X c #C5B09A",
"=X c #E7AA86",
"-X c #FDAD85",
";X c #F5AC84",
":X c #F8B58C",
">X c #E2BC95",
",X c #E7B897",
"<X c #F8BA91",
"1X c #EEB48D",
"2X c #E7BEA6",
"3X c #CC9092",
"4X c #D9C69A",
"5X c #ECC29A",
"6X c #E7C497",
"7X c #F3C39A",
"8X c #FBC59B",
"9X c #FCCB9E",
"0X c #F5C59B",
"qX c #DEC2A4",
"wX c #FDCDA3",
"eX c #F3CDA5",
"rX c #FED2A6",
"tX c #FED5A9",
"yX c #FFDBAC",
"uX c #FBD8A6",
"iX c #FDDEB2",
"pX c #F0D4B8",
"aX c #ECCCA3",
"sX c #FFE2B2",
"dX c #FFE7BA",
"fX c #C8CACB",
"gX c #EFDBC6",
"hX c #FCFBFA",
/* pixels */
"                                                                                                                                  ",
"                                                  #                                                                               ",
"                                          # o       o                                                                             ",
"                            o o             o .     . o     #                                                                     ",
"                            o . . o o o o     . .   o X   o o                                                                     ",
"                              o . . . . . . . . . # X . . . o                                                                     ",
"                    X o         o o . . . . . o @ o . . . . X                                                                     ",
"                      . . o o o X o . . . . X O o . . . . o     o                                                                 ",
"                        . . . . . . . . o X o . . . . . . . . . . . . . o           o o X                                         ",
"                          o . . . . o X o . . . s ) ( # . . o # e 8 # o . X o . o o X                                             ",
"                                o . o o o . . Y 8.4.a o . 8 T T T U 9 % # . $ X . . . .                                           ",
"                              . . . . . . . . 4.) % . X # @ # # . . . . o @ . X . . - % . o X                                     ",
"                          o . . . . . . . . . 8 % . o . X q r d u 9 . . + - 0 a ^ OXtXaXd   X X                                   ",
"                        X . . o . . . . . . . . p J $ : w.rXiXyXsX5.o q.eX7XwXyXyXtXwXtX&X;                                       ",
"                        o . o   . . . . . o o . 8 8 o OXsXwXwX9XyXq / sXwXrXwXwXwXwXwXwXsX..                                      ",
"                        . X   o . . . o     o . 9 % = ;XeXwXwX9XwXa >XrXwXwXwXrXwXrXwXwXtX$X+                                     ",
"                      o o     o . .         . o % 1 * r.wXrXyXyXtX6.wXwXwXwXwXrXrXrX9XtXyXOX$                                     ",
"                              o . X         . . # % * r.8XtX9.9.>XtXiXrXwXrXrXtXrXwXyX$Xd . o                                     ",
"                              o o         . . . X @ > i.<X^ . . . * ( +XyXeXwXwXwXtX .o . $ #                                     ",
"                                o         ..#X$.O o #.i.1X6X&XfXoX' % u W &.rXtXq.E ; ; oXhX'                                     ",
"                                        u 8Xf.-XOXr i.u.<XtXtXhXhXfXo e *X7XwXwX0XqXT . fXhXw                                     ",
"                                        q $Xu.=XrX=Xr.u.0XrXwXeXgXgX..4.dXrXwXwXwXiX.X$.pXiXY                                     ",
"                                          %.-Xp.rX1Xr.i.8XwXwXwXwXwXiXyXwXwXwXrXwXwXtXrXwXsX6.                                    ",
"                                            5.7XyX-Xr.r.<XrXwXwXwXwXeXwXwXwXwXwXwXwXwX8Xs.<X&X%                                   ",
"                                              ! $.o.a.r.p.tXwXrXwXwXwXwXwXrXwXwXwXrXwX&X@X1.y.9                                   ",
"                                                  o | a.u.1XtXwXwXwXwXrXwX5XrXiXtX0X$X^ Q *.O.#                                   ",
"                                                    o g i.a.7XrXwXwXtXXXW 3.$X&.^ ^ ^ q.+XuXW                                     ",
"                                                        > +.a.9XtXwX5X3.6.OX! 6.>XuXrXtXdX7.+                                     ",
"                                                      P K k y +.:XyXyXuXiXsXiXdXtX$XtX5X .o                                       ",
"                                                  B B.J.T.T.b.k t { 9.&X%./ Q E q . 0 * .                                         ",
"                                            @ c v.n.n.v.S.L.T.T.] 5.{ g y = . . . . . 2 j                                         ",
"                                          O j N.n.n.n.n.v.S.K.H.J.&XuX8Xf.a.y.h ; . . k P                                         ",
"                                          , v.n.n.n.n.n.n.n.G.K.U.[ ,.1XyXrXrXyXwX#X~ K V.X                                       ",
"                                        X x v.n.n.n.N.B K n.V.I.I.Q.s.-.<.wXrXwXwXuXoXU.G.,                                       ",
"                                        3 V n.n.v.N.M 2 n.n.n.J.I.J.aX8X>.-.<XtXwXuX|.H.J.&                                       ",
"                                      , B m.n.n.n.n., x n.n.v.G.Y.U..XtXrX=X>.eXwXrX}.U.J.<                                       ",
"                                    @ z B n.n.n.F.j 3 M n.n.n.S.K.U.}.uXwXyX1X=XuX9XQ.I.G.x                                       ",
"                                    3 B B n.n.n.K < B m v.n.n.B.J.Y.K.%XwXwXrXwXtX XU.Y.S.v.B.B.                                  ",
"                                    x m M n.v.N.z z m x M n.V.B.H.J.J 2.g.2XrXtX.XU.R.G.V.v.N v.B.P                               ",
"                                  1 m c V n.n.V.B z m l x M n.B.J s 9 : 2.e.}.qX!.l.c.Z.n.N x B n.F.V.P                           ",
"                                  j M m V n.n.V.L 2 B c b Z Z _ S S A A H *.k.F (._.`.z.F j m m n m z v j                         ",
"                                @ x m m V n.n.n.N.2 A '.)._.[.'.'.[.[.[.'.^.^.).(.)._.).^.b n z Q OXt.4 3                         ",
"                                < B m x V n.n.n.N.M 8 } (.F F H G c.W.E.l.A.z.'.).k.D z.'.(.R E >X&X^ Q W                         ",
"                                v B m m N n.n.n.n.v.1 U p e % 6 L N.M.N.b.Z.).`.k.b.v.V (.'.=.6X5.^  .sX>X(                       ",
"                              & m m m m B n.n.n.m.H.z - e * k F.S.n.b.V.n.z._.(.C.N.B.b.k.^.].8...iXOX6.uX3.                      ",
"                              < m m B B N V.F.N.M.M 2 % * j S.S.v.v.K b.Z.).'.x.b.V.K b.Z._./.3X%X6.sX6.E                         ",
"                                , 2 j v l n n l b a X 6 k K S.V.v.n.K L k._.).j.b.n.v.n.v.z.^.{.uX3.^                             ",
"                                    * { g ..&.t.7XyX^ z P S.B.v.n.n.N.P (._.(.v.n.B.I n.M.k.`.F                                   ",
"                                    y i.8XyXiXyX&XyXt.3 L N L n.n.n.n.B.k.).x.b.N.I ' n.n.Z.j.                                    ",
"                                    r <.@X5XOXsX6.3.S l B x L S.B.n.n.n.M.B.C.V.m.~.rXB.b.N.b.P                                   ",
"                                    w i h +X..aX..  x m n l n b.b.n.n.n.n.n.V.N.h. XuX~.L P                                       ",
"                                    w 7 % :   d         S ] ` ` Q.P v.v.B.v.B.I ] aXwXuXX.                                        ",
"                                  w 9 $ -               +.<XuXwXrXW           :.f.rXwXtX+X                                        ",
"                                  8 $ $                 r.;XwXwXrX0.          #.;XwXwXrX+X                                        ",
"                                  $ *                   ;.:XtXwXtXq.          O.-XrXwXtXt.                                        ",
"                                  8                   0 ;.<XuXwXiX&.          O.:XrXwXyX0.                                        ",
"                                                      ; ;.<XrX9XiX$.        X +.:XrXwXyXq.                                        ",
"                                                      * r.7XrXwXyX..        # #.<XtXrXiX>X8                                       ",
"                                                      r r.9XtX9XiXOXX       u a.8X@X8.7.#XX.u                                     ",
"                                                      i -X5X0.7.5.q...q     O i  .&.XXq.- ! d                                     ",
"                                                      O t d ..7.X.# W ;       . . o o O X . .                                     ",
"                                                        . . . . o o .                                                             ",
"                                                                                                                                  ",
"                                                                                                                                  ",
"                                                                                                                                  "
};
