/* XPM */
static char *result[] = {
/* columns rows colors chars-per-pixel */
"65 65 229 2 ",
"   c #020202",
".  c #040708",
"X  c #0B0B0B",
"o  c #070807",
"O  c #12100E",
"+  c #0B0D14",
"@  c #0C1118",
"#  c #131313",
"$  c #191613",
"%  c #1B1A14",
"&  c #1C1C1B",
"*  c #151A1B",
"=  c #251B17",
"-  c #221A16",
";  c #20110D",
":  c #24211C",
">  c #34231D",
",  c #0D1727",
"<  c #0E1D37",
"1  c #0C1227",
"2  c #3D1E34",
"3  c #1B2225",
"4  c #11223C",
"5  c #1C283A",
"6  c #0F213E",
"7  c #232221",
"8  c #2C2B27",
"9  c #342C26",
"0  c #3B3429",
"q  c #393936",
"w  c #422A1F",
"e  c #573529",
"r  c #433D37",
"t  c #4B342A",
"y  c #673C2E",
"u  c #3D4234",
"i  c #404317",
"p  c #4F4236",
"a  c #544639",
"s  c #6C4334",
"d  c #774838",
"f  c #78503D",
"g  c #08254C",
"h  c #112749",
"j  c #122B4C",
"k  c #132646",
"l  c #082957",
"z  c #142D54",
"x  c #162F56",
"c  c #14335E",
"v  c #1C3557",
"b  c #183348",
"n  c #243050",
"m  c #0B3266",
"M  c #153463",
"N  c #183562",
"B  c #17396B",
"V  c #193B6A",
"C  c #153768",
"Z  c #193E72",
"A  c #163F75",
"S  c #0C3773",
"D  c #213A6A",
"F  c #3A3E77",
"G  c #292E64",
"H  c #4E274D",
"J  c #583751",
"K  c #66205E",
"L  c #661F64",
"P  c #6A286A",
"I  c #7C2E7A",
"U  c #703178",
"Y  c #472565",
"T  c #384650",
"R  c #1B4175",
"E  c #1B447C",
"W  c #14457A",
"Q  c #22416B",
"!  c #254A7B",
"~  c #254878",
"^  c #484543",
"/  c #575547",
"(  c #575654",
")  c #534851",
"_  c #635444",
"`  c #6C5D4C",
"'  c #685749",
"]  c #785645",
"[  c #734854",
"{  c #74624E",
"}  c #6C6353",
"|  c #796652",
" . c #4F586E",
".. c #797169",
"X. c #873C38",
"o. c #8B533E",
"O. c #82217A",
"+. c #965C47",
"@. c #826D59",
"#. c #8B745C",
"$. c #85725B",
"%. c #8F6C55",
"&. c #B46F55",
"*. c #AE7457",
"=. c #94586A",
"-. c #867961",
";. c #957C64",
":. c #987F65",
">. c #8E7975",
",. c #A56F6F",
"<. c #D25754",
"1. c #CA7959",
"2. c #D67C5C",
"3. c #D17867",
"4. c #E47E6B",
"5. c #F27C6D",
"6. c #DECB1E",
"7. c #EACC2C",
"8. c #9D8569",
"9. c #9A9573",
"0. c #A2856A",
"q. c #A58A6E",
"w. c #AE886E",
"e. c #A88F73",
"r. c #AC9274",
"t. c #B39576",
"y. c #B8997A",
"u. c #DE805D",
"i. c #DD8465",
"p. c #DA8766",
"a. c #C29E7E",
"s. c #D9987A",
"d. c #E4876A",
"f. c #EA936E",
"g. c #EA9675",
"h. c #F59873",
"j. c #EA8E72",
"k. c #C6A27D",
"l. c #F7A47D",
"z. c #EEA37D",
"x. c #EFCA78",
"c. c #4B3A84",
"v. c #443B83",
"b. c #543C87",
"n. c #562D8C",
"m. c #7B2B87",
"M. c #683588",
"N. c #633D93",
"B. c #0C4084",
"V. c #1E4781",
"C. c #1D4B86",
"Z. c #164B8B",
"A. c #1D4D8A",
"S. c #164E87",
"D. c #15508A",
"F. c #1C518D",
"G. c #1F5191",
"H. c #195B9E",
"J. c #0E5189",
"K. c #224C85",
"L. c #214E8B",
"P. c #264684",
"I. c #334483",
"U. c #24528C",
"Y. c #225393",
"T. c #2D5C9B",
"R. c #275696",
"E. c #365A8E",
"W. c #356098",
"Q. c #245AA2",
"!. c #285EA7",
"~. c #2962A7",
"^. c #3161A2",
"/. c #3466AB",
"(. c #504C88",
"). c #4F6D93",
"_. c #707B92",
"`. c #961C94",
"'. c #8F1E8D",
"]. c #892789",
"[. c #95258D",
"{. c #99248E",
"}. c #922487",
"|. c #9A2592",
" X c #9B2696",
".X c #8A3089",
"XX c #A22696",
"oX c #AC668C",
"OX c #7184A1",
"+X c #908E8F",
"@X c #A89E98",
"#X c #9CA09E",
"$X c #BDA181",
"%X c #B2A590",
"&X c #C8A785",
"*X c #D5AF8B",
"=X c #D7B58E",
"-X c #D9B995",
";X c #EDAA86",
":X c #F8B58C",
">X c #E4BC95",
",X c #E6BC9A",
"<X c #F7B993",
"1X c #FFA981",
"2X c #CDB9A3",
"3X c #EEC39B",
"4X c #E7C69C",
"5X c #F2C59C",
"6X c #FBC59A",
"7X c #F3C99E",
"8X c #FBCA9E",
"9X c #FEC497",
"0X c #EECD95",
"qX c #DBC6B1",
"wX c #FDCDA3",
"eX c #F5CBA4",
"rX c #FED2A5",
"tX c #FFD5A9",
"yX c #FFDAAC",
"uX c #FFD9A7",
"iX c #FCDBB5",
"pX c #EBCDA3",
"aX c #FFE3B3",
"sX c #FFE8BB",
"dX c #D8D7D5",
"fX c #C4C4C3",
"gX c #FDFEFF",
"hX c #F1DCC6",
"jX c None",
/* pixels */
"jXjXjXjXjXjXjXjXjXjXjXjXjXjXjXjXjXjXjXjXjXjXjXjXjXjXjXjXjXjXjXjXjXjXjXjXjXjXjXjXjXjXjXjXjXjXjXjXjXjXjXjXjXjXjXjXjXjXjXjXjXjXjXjXjX",
"jXjXjXjXjXjXjXjXjXjXjXjXjXjXjXjXjXjXjXjXjXjXjXjXjXjXjXjXjXjXjXjXjXjXjXjXjXjX# jXjXjXjXjXjXjXjXjXjXjXjXjXjXjXjXjXjXjXjXjXjXjXjXjXjX",
"jXjXjXjXjXjXjXjXjXjXjXjXjXjXjXjXjXjXjXjXjXjXjXjXjXjXjXjXjXjXjXjXjXjXjXjXjXX o jXjX. X jXjXjXjXjXjXjXjXjXjXjXjXjXjXjXjXjXjXjXjXjXjX",
"jXjXjXjXjXjXjXjXjXjXjXjXjXjXjXjXjXjXjXjXjXjXjXjXjXjXjXjXjXjXjXjXjXjXjXjXjX  jXjXo . jXjXjXjXjXjXjX. jXjXjXjXjXjXjXjXjXjXjXjXjXjXjX",
"jXjXjXjXjXjXjXjXjXjXjXjXjXjXjXjXjXjXjXjXjXjXjXjXjXjXjXjXjXjXjXjXjXX   jXX o jXo   X jXX o o o     . jXjXjXjXjXjXjXjXjXjXjXjXjXjXjX",
"jXjXjXjXjXjXjXjXjXjXjXjXjXjXjXjXjXjXjXjXjXjXjXjXjXjXjXjXjXjXjXjXjXX     . X # .                   jXjXjXjXjXjXjXjXjXjXjXjXjXjXjXjX",
"jXjXjXjXjXjXjXjXjXjXjXjXjXjXjXjXjXjXjXjXjXjXjXjXjXjXjXjXjXjXjXjXjXjX        o O X             . jXjXjXjXo X jXjXjXjXjXjXjXjXjXjXjX",
"jXjXjXjXjXjXjXjXjXjXjXjXjXjXjXjXjXjXjXjXjXjXjXjXjXjXjXjXjXjXjXX X jXX           X X         X X X o .     jXjXjXjXjXjXjXjXjXjXjXjX",
"jXjXjXjXjXjXjXjXjXjXjXjXjXjXjXjXjXjXjXX X . jXjXjXjXjX. .                         o X o                 X jXjXjXjXjXjXjXjXjXjXjXjX",
"jXjXjXjXjXjXjXjXjXjXjXjXjXjXjXjXjXjXjXjXjXjX. . .   O   . # = 0 * o     o / -./ O     o # X         . jXjXjXjXjXjXjXjXjXjXjXjXjXjX",
"jXjXjXjXjXjXjXjXjXjXjXjXjXjXjXjXjXjXjXjX.       o & o X # & n / ( ( 8 X   9 ..%X..X     X X   . jXjXjXjXjXjXjXjXjXjXjXjXjXjXjXjXjX",
"jXjXjXjXjXjXjXjXjXjXjXjXjXjXjXjXjXX X   X > .   .   . O         @ # + # O   o / 9.%               X jXjXjXjXjXjXjXjXjXjXjXjXjXjXjX",
"jXjXjXjXjXjXjXjXjXjXjXjXjXjXjXjXO X jX8 =XyX=X#.a 9 9 #     = 0 a a 0 $   . . . 9                   . jXjXjXjXjXjXjXjXjXjXjXjXjXjX",
"jXjXjXjXjXjXjXjXjXjXjXjXjXjXjXjX$ jXX t.iXwXuXyXyXtX5X7X=X- _ aXyXyXuX-Xr # ^ ^                 .     o jXjXjXjXjXjXjXjXjXjXjXjXjX",
"jXjXjXjXjXjXjXjXjXjXjXjXjXjXjXjXjXjXa yXwXwXwXwXwXrXrXwXiX&XO 3XwXwX8XuXwX= & 8 X o X           jXjX    jXjXjXjXjXjXjXjXjXjXjXjXjX",
"jXjXjXjXjXjXjXjXjXjXjXjXjXjXjXjXjXjXq.iX8XwXwXrXwXwXwXwXwXtXa *XtXeXwXwX9Xe X 8 X   jXjXjX      . jXjX. X jXjXjXjXjXjXjXjXjXjXjXjX",
"jXjXjXjXjXjXjXjXjXjXjXjXjXjXjXjXjX  8.aXtXwXrXrXeXtXwXwXwXrXt.5XyXyXrXrXl.e * & X   X jXjXjX.     jXjXX o jXjXjXjXjXjXjXjXjXjXjXjX",
"jXjXjXjXjXjXjXjXjXjXjXjXjXjXjXjXjXjX  t t.yXrXwXtXrXwXwXtXyXyX4Xy.0.5XrXf.t # # .   X jXjXjXjX    jXjXjX# jXjXjXjXjXjXjXjXjXjXjXjX",
"jXjXjXjXjXjXjXjXjXjXjXjXjXjXjXjXjXjX& . . s pXrXwXrXeXyX>X;.9       t 3Xh.s . #       jXjXjXjX. o jXjXjXjXjXjXjXjXjXjXjXjXjXjXjXjX",
"jXjXjXjXjXjXjXjXjXjXjXjXjXjXjXjXjXjXdXdX9 : p 8.wXtXt.} a % ^ @XqXqX>X>Xd.p.=   ` &Xq.jXjXjXjXX X jXjXjXjXjXjXjXjXjXjXjXjXjXjXjXjX",
"jXjXjXjXjXjXjXjXjXjXjXjXjXjXjXjXjX# dXgX. * 2XeXtXwXwX-X(   +XgXgXiXtXwXp.h.s ;.<Xh.rX{ jXjXjXjXjXjXjXjXjXjXjXjXjXjXjXjXjXjXjXjXjX",
"jXjXjXjXjXjXjXjXjXjXjXjXjXjXjXjXjX9 >XhXe.9.iXwXwXwXwXiX%X} qXhXqXrXwXeXf.i.s.uX<X2.:X` jXjXjXjXjXjXjXjXjXjXjXjXjXjXjXjXjXjXjXjXjX",
"jXjXjXjXjXjXjXjXjXjXjXjXjXjXjXjXjX{ iXwXwXtXwXwXrXwXwXwXtXaXwXwX8XrXwXwXf.i.z.tX;Xl.t.jXjXjXjXjXjXjXjXjXjXjXjXjXjXjXjXjXjXjXjXjXjX",
"jXjXjXjXjXjXjXjXjXjXjXjXjXjXjXjXjXe.tXj.<XtXwXwXwXwXwXwXwXwXwXwXrXwXrX6Xd.i.g.uX9Xa.r jXjXjXjXjXjXjXjXjXjXjXjXjXjXjXjXjXjXjXjXjXjX",
"jXjXjXjXjXjXjXjXjXjXjXjXjXjXjXjX. w.5.s.-X7XrXwXwXwXrXwXwXwXwXwXwXwXtX;Xi.h.&.| $.jXjXjXjXjXjXjXjXjXjXjXjXjXjXjXjXjXjXjXjXjXjXjXjX",
"jXjXjXjXjXjXjXjXjXjXjXjXjXjXjXjXjXX.3.} ' k.7XrXyXyX3XwXuXrXwXtXwXrX8Xi.h.&.= jXjXjXjXjXjXjXjXjXjXjXjXjXjXjXjXjXjXjXjXjXjXjXjXjXjX",
"jXjXjXjXjXjXjXjXjXjXjXjXjXjXjXjXjXt pX*X&X| | { #.&Xt.` 8.eXwXwXrXwXg.h.+.$ jXjXjXjXjXjXjXjXjXjXjXjXjXjXjXjXjXjXjXjXjXjXjXjXjXjXjX",
"jXjXjXjXjXjXjXjXjXjXjXjXjXjXjXjXjXjX| aXuXwXuX5X$X{ t.y.8.*XeXrXwXl.1.e jXjXjXjXjXjXjXjXjXjXjXjXjXjXjXjXjXjXjXjXjXjXjXjXjXjXjXjXjX",
"jXjXjXjXjXjXjXjXjXjXjXjXjXjXjXjXjXjXjX_ -XyX=X7XsXaXyXaXuXuXtX<X1.s 5 R ! n jXjXjXjXjXjXjXjXjXjXjXjXjXjXjXjXjXjXjXjXjXjXjXjXjXjXjX",
"jXjXjXjXjXjXjXjXjXjXjXjXjXjXjXjXjXjXjXjXX 0 o = _ _ #.| -Xk.%.y n W /./.^.U.V b jXjXjXjXjXjXjXjXjXjXjXjXjXjXjXjXjXjXjXjXjXjXjXjXjX",
"jXjXjXjXjXjXjXjXjXjXjXjXjXjXjXjXjXjXjX3 j           ; e d d *.>.T./.^.R.C.A.L.C.R @ jXjXjXjXjXjXjXjXjXjXjXjXjXjXjXjXjXjXjXjXjXjXjX",
"jXjXjXjXjXjXjXjXjXjXjXjXjXjXjXjXjXjXjXv !     $ a *.h.;X:XtX8X).Q.W.R.C.A.A.C.C.G.N + jXjXjXjXjXjXjXjXjXjXjXjXjXjXjXjXjXjXjXjXjXjX",
"jXjXjXjXjXjXjXjXjXjXjXjXjXjXjXjXjXjXjXQ G.) k.0XtXtXwXiX6X5.=.Q.^.T.C.A.A.A.A.A.C.G.< jXjXjXjXjXjXjXjXjXjXjXjXjXjXjXjXjXjXjXjXjXjX",
"jXjXjXjXjXjXjXjXjXjXjXjXjXjXjXjXjXjXo ~ ~.OXyXrXwXwXtXg.<.d._.Q.^.U.C.C.N A.A.A.A.A.Z @ jXjXjXjXjXjXjXjXjXjXjXjXjXjXjXjXjXjXjXjXjX",
"jXjXjXjXjXjXjXjXjXjXjXjXjXjXjXjXjXjXo ! !.).wXwXtXwX3.<.;XuX).!.^.U.C.G.g z G.C.A.C.V.j + jXjXjXjXjXjXjXjXjXjXjXjXjXjXjXjXjXjXjXjX",
"jXjXjXjXjXjXjXjXjXjXjXjXjXjXjXjXjXjX+ U./.).wXwXrX4.d.wXuX,XW.~.T.K.A.A.Z @ R G.A.A.V.B < jXjXjXjXjXjXjXjXjXjXjXjXjXjXjXjXjXjXjXjX",
"jXjXjXjXjXjXjXjXjXjXjXjXjXjXjXjXjXjXx U.^.T.-XuX<X;XtXeXuX%XR.^.R.C.A.A.Z h , G.A.A.A.C M @ jXjXjXjXjXjXjXjXjXjXjXjXjXjXjXjXjXjXjX",
"jXjXjXjXjXjXjXjXjXjXjXjXjXjXjXjXjXK.C.K.^.Q.OXwXeXrXwXrX0X).!.^.U.C.A.A.C B < N G.C.G.Z C j jXjXjXjXjXjXjXjXjXjXjXjXjXjXjXjXjXjXjX",
"jXjXjXjXjXjXjXjXjXjXjXjXjXjXjXC.A.Z E A.U.~.H.+XuXrXeX0X7./ E.^.L.L.L.Z c c C k C.A.L.A M M 4 jXjXjXjXjXjXjXjXjXjXjXjXjXjXjXjXjXjX",
"jXjXjXjXjXjXjXjXjXjXjXjXD L.G.L.Z c N K.P.N.(.(.=X#X8.6.i 3 u T ! Z.A c l c c j L.L.G.A c B 4 jXjXjXjXjXjXjXjXjXjXjXjXjXjXjXjXjXjX",
"jXjXjXjXjXjXjXjXjXjXjX4 k h M m M B k L m.'.|.}.U n.=.[ H H H J ) F G G c D < M G.A.A.A c B z X jXjXjXjXjXjXjXjXjXjXjXjXjXjXjXjXjX",
"jXjXjXjXjXjXjXjXjXjXjXjX1 #.-X$.n m z I {.[.[.}.[.}.`. XXX`.XX XXX X{.[. XL @ A.A.A.A.V.c M M 1 jXjXjXjXjXjXjXjXjXjXjXjXjXjXjXjXjX",
"jXjXjXjXjXjXjXjXjXjXjXjX} _ $X4X%.a U  X}.F c.m.|.].c.v.b.b.N.P P P I I .X2 j Y.A.C.G.A M M B < jXjXjXjXjXjXjXjXjXjXjXjXjXjXjXjXjX",
"jXjXjXjXjXjXjXjXjXjXjX&XsXq.} ;.4X,.}.|.c.S.D.v.[.{.b.S.A.Z.U.K.b % 8 q / 3 A F.C.L.G.A M N C x + jXjXjXjXjXjXjXjXjXjXjXjXjXjXjXjX",
"jXjXjXjXjXjXjXjXjXjX| rX&Xr.aXw.:.oX`.m.C.V.L.C.m.{.].P.A.L.A.U.Y.D & 8 8 4 R.A.L.A.A.Z M M M C , jXjXjXjXjXjXjXjXjXjXjXjXjXjXjXjX",
"jXjXjXjXjXjXjXjXjXjXjX' #.yX&Xy.,X].|.c.Z.V.C.Z.c.[.`.c.A.E E C.K.Y.v & % , m C.G.G.G.S N B N B < jXjXjXjXjXjXjXjXjXjXjXjXjXjXjXjX",
"jXjXjXjXjXjXjXjXjXjXjXjXjX| | pXoX'.}.P.A.C.C.A.P.].[.m.W Z C.A.K.U.K.x 5 O 9 T z m S g g g < , jXjXjXjXjXjXjXjXjXjXjXjXjXjXjXjXjX",
"jXjXjXjXjXjXjXjXjXjXjXjXjXjXjXjXP |.m.A.A.~ ! A.S.M.|.[.I.F.L.A.A.K.U.! v ^ eXwXa.0.-.+.o.w jXjXjXjXjXjXjXjXjXjXjXjXjXjXjXjXjXjXjX",
"jXjXjXjXjXjXjXjXjXjXjXjXjXjXjXjXjXI.v.C.Z. . .Z.Z.v.}.M.I.Z.L.A.A.E B Z g @.aX=XuXiXaX6Xh.] jXjXjXjXjXjXjXjXjXjXjXjXjXjXjXjXjXjXjX",
"jXjXjXjXjXjXjXjXjXjXjXjXjXjXjXjX! A.Z.Y.B.-X@XB.L.P.P.Z.Z.C.A.K.A.P.N c M 5 0.#.iX*X=X>Xi.d jXjXjXjXjXjXjXjXjXjXjXjXjXjXjXjXjXjXjX",
"jXjXjXjXjXjXjXjXjXjXjXjXjXjXjXjXjXjX! Q (.8X4XB.Z.L.A.C.A.A.A.V.Z.S m m C N jX_ pX0.$X#.y 0 jXjXjXjXjXjXjXjXjXjXjXjXjXjXjXjXjXjXjX",
"jXjXjXjXjXjXjXjXjXjXjXjXjXjXjXjXjXjXjX_ pXuXwX9. .E L.C.K.K.E E.). ...[ , jXjXjXa jX7 * & q ^ jXjXjXjXjXjXjXjXjXjXjXjXjXjXjXjXjXjX",
"jXjXjXjXjXjXjXjXjXjXjXjXjXjXjXjXjXjXjXt.uXwXtX:X2.jXjXjXjXjXr 5X8XuX9X2.jXjXjXjXjXjXjX7 & 7 q jXjXjXjXjXjXjXjXjXjXjXjXjXjXjXjXjXjX",
"jXjXjXjXjXjXjXjXjXjXjXjXjXjXjXjXjXjXjXy.tXwXrX:X1.jXjXjXjXjX8.wXwXrX<Xp.jXjXjXjXjXjXjXjX7 & & jXjXjXjXjXjXjXjXjXjXjXjXjXjXjXjXjXjX",
"jXjXjXjXjXjXjXjXjXjXjXjXjXjXjXjXjXjXjX:.tXwXtX<X1.> jXjXjXjX:.wX8XrX6Xp.] jXjXjXjXjXjXjXjX7 & jXjXjXjXjXjXjXjXjXjXjXjXjXjXjXjXjXjX",
"jXjXjXjXjXjXjXjXjXjXjXjXjXjXjXjXjXjXjX-.yXwXwX6X1.8 jXjXjXjX` wXrXrX8Xd.e jXjXjXjXjXjXjXjXjX7 jXjXjXjXjXjXjXjXjXjXjXjXjXjXjXjXjXjX",
"jXjXjXjXjXjXjXjXjXjXjXjXjXjXjXjXjXjXjX$.iX8XwX6Xp.> jXjXjXjXa tX8XrX8Xf.e jXjXjXjXjXjXjXjXjXjXjXjXjXjXjXjXjXjXjXjXjXjXjXjXjXjXjXjX",
"jXjXjXjXjXjXjXjXjXjXjXjXjXjXjXjXjXjXo t.aXrXtX6Xi.> jXjXjXjXa tX8XrXeXh.e jXjXjXjXjXjXjXjXjXjXjXjXjXjXjXjXjXjXjXjXjXjXjXjXjXjXjXjX",
"jXjXjXjXjXjXjXjXjXjXjXjXjXjXjXjXjX9 ` *Xy.e.&XeXl.d jXjXjXo 8.aX8XrXrXh.y jXjXjXjXjXjXjXjXjXjXjXjXjXjXjXjXjXjXjXjXjXjXjXjXjXjXjXjX",
"jXjXjXjXjXjXjXjXjXjXjXjXjXjXjXjXjX9 -.$ 8.$Xq.{ f - jXjX: { r.w.q.t.>X:X+.. jXjXjXjXjXjXjXjXjXjXjXjXjXjXjXjXjXjXjXjXjXjXjXjXjXjXjX",
"jXjXjXjXjXjXjXjXjXjXjXjXjXjXjXjXjX    X O X X     . jXjXO { $ ' e.:._ a ; jXjXjXjXjXjXjXjXjXjXjXjXjXjXjXjXjXjXjXjXjXjXjXjXjXjXjXjX",
"jXjXjXjXjXjXjXjXjXjXjXjXjXjXjXjXjXjXjXjXjXjXjXjXjXjXjXjXjX  . .         jXjXjXjXjXjXjXjXjXjXjXjXjXjXjXjXjXjXjXjXjXjXjXjXjXjXjXjXjX",
"jXjXjXjXjXjXjXjXjXjXjXjXjXjXjXjXjXjXjXjXjXjXjXjXjXjXjXjXjXjXjXjXjXjXjXjXjXjXjXjXjXjXjXjXjXjXjXjXjXjXjXjXjXjXjXjXjXjXjXjXjXjXjXjXjX",
"jXjXjXjXjXjXjXjXjXjXjXjXjXjXjXjXjXjXjXjXjXjXjXjXjXjXjXjXjXjXjXjXjXjXjXjXjXjXjXjXjXjXjXjXjXjXjXjXjXjXjXjXjXjXjXjXjXjXjXjXjXjXjXjXjX",
"jXjXjXjXjXjXjXjXjXjXjXjXjXjXjXjXjXjXjXjXjXjXjXjXjXjXjXjXjXjXjXjXjXjXjXjXjXjXjXjXjXjXjXjXjXjXjXjXjXjXjXjXjXjXjXjXjXjXjXjXjXjXjXjXjX"
};
