/* XPM */
static char *_ea86760d7ad443ed56227d1f198f49dzI0CrDG2yGPLdw8e[] = {
/* columns rows colors chars-per-pixel */
"175 20 213 2 ",
"   c None",
".  c #000000",
"X  c #0D0D0D",
"o  c #02050C",
"O  c #10100F",
"+  c #000B15",
"@  c #000C18",
"#  c #0A1014",
"$  c #121212",
"%  c #1C1B1B",
"&  c #1A1613",
"*  c #180E0E",
"=  c #22201D",
"-  c #021521",
";  c #001630",
":  c #00273D",
">  c #00293B",
",  c #232322",
"<  c #2C2C2C",
"1  c #282726",
"2  c #353535",
"3  c #3B3B3B",
"4  c #383736",
"5  c #312F2D",
"6  c #403F3E",
"7  c #4A453F",
"8  c #47443E",
"9  c #002E44",
"0  c #003A46",
"q  c #003644",
"w  c #002F55",
"e  c #00365D",
"r  c #00355B",
"t  c #3F3F40",
"y  c #003662",
"u  c #003A63",
"i  c #003E6B",
"p  c #004349",
"a  c #01406D",
"s  c #004473",
"d  c #00477A",
"f  c #004A7C",
"g  c #0E4974",
"h  c #114F77",
"j  c #2E597A",
"k  c #434343",
"l  c #494640",
"z  c #4C4C4C",
"x  c #4C4844",
"c  c #55514D",
"v  c #535353",
"b  c #555459",
"n  c #5C5C5C",
"m  c #5C5754",
"M  c #504F4F",
"N  c #625E5B",
"B  c #61605C",
"V  c #5B5D6B",
"C  c #585A64",
"Z  c #4B4F61",
"A  c #605E60",
"S  c #5E606E",
"D  c #5F6270",
"F  c #646464",
"G  c #6B6B6B",
"H  c #686667",
"J  c #706D6B",
"K  c #76726F",
"L  c #626471",
"P  c #6A6B74",
"I  c #737373",
"U  c #7B7B7B",
"Y  c #767576",
"T  c #6F717E",
"R  c #83817D",
"E  c #004E82",
"W  c #004F88",
"Q  c #015186",
"!  c #00538C",
"~  c #025A8E",
"^  c #1E5D89",
"/  c #015A94",
"(  c #015D9B",
")  c #005592",
"_  c #225B84",
"`  c #205E89",
"'  c #136481",
"]  c #1E618D",
"[  c #1B6985",
"{  c #01609E",
"}  c #046795",
"|  c #1D6291",
" . c #116795",
".. c #086A8B",
"X. c #246D88",
"o. c #397891",
"O. c #306F8D",
"+. c #005EA2",
"@. c #0062A2",
"#. c #0064A9",
"$. c #0069AE",
"%. c #0069A2",
"&. c #097AA9",
"*. c #006CB3",
"=. c #006DBB",
"-. c #0067B1",
";. c #0F77AA",
":. c #2777A5",
">. c #477C96",
",. c #7C7C82",
"<. c #0071C1",
"1. c #0189BB",
"2. c #0E99B9",
"3. c #3389B3",
"4. c #17A2BE",
"5. c #4D839A",
"6. c #54879E",
"7. c #5D8CA2",
"8. c #439DB0",
"9. c #6894A9",
"0. c #719AAD",
"q. c #759EB1",
"w. c #7B9FB1",
"e. c #5CA5BF",
"r. c #7CA3B5",
"t. c #6CA7BF",
"y. c #70909F",
"u. c #0595CA",
"i. c #1394CF",
"p. c #2D91C5",
"a. c #02A9D7",
"s. c #13A9D6",
"d. c #38A8DA",
"f. c #26A6DC",
"g. c #01A7E2",
"h. c #17AAE4",
"j. c #01BFEA",
"k. c #20BCED",
"l. c #22AFE8",
"z. c #48A8D9",
"x. c #58ACDB",
"c. c #51ACCA",
"v. c #69ACC8",
"b. c #78B2C8",
"n. c #6EB1CC",
"m. c #54AEE1",
"M. c #78BEE4",
"N. c #00C2DB",
"B. c #12CEF2",
"V. c #00E4FA",
"C. c #1DE5FF",
"Z. c #22E8FE",
"A. c #25F4FF",
"S. c #2EF6FF",
"D. c #2CF9FF",
"F. c #25FAFF",
"G. c #24D6F8",
"H. c #848484",
"J. c #8B8B8C",
"K. c #878787",
"L. c #8C8D92",
"P. c #949494",
"I. c #9D9D9C",
"U. c #999795",
"Y. c #92908D",
"T. c #A09F9E",
"R. c #AF9F9D",
"E. c #B09F9D",
"W. c #A1A09F",
"Q. c #AFA29E",
"!. c #B0A29E",
"~. c #9D9EA6",
"^. c #86AABB",
"/. c #9EA9AF",
"(. c #A4A4A3",
"). c #ACA5A2",
"_. c #ACACAB",
"`. c #A5A5A9",
"'. c #B4B4B4",
"]. c #BBBBBB",
"[. c #B0AFB2",
"{. c #88B8CA",
"}. c #94B3C3",
"|. c #9ABBCA",
" X c #87BED8",
".X c #82AAC6",
"XX c #A2BECC",
"oX c #BABCC2",
"OX c #B6B9C0",
"+X c #9AC6D6",
"@X c #A6C1CF",
"#X c #AAC4D2",
"$X c #A8CADA",
"%X c #B3CCD9",
"&X c #BCD1DC",
"*X c #BBD5E3",
"=X c #C4C4C4",
"-X c #CBCBCB",
";X c #C7C8CA",
":X c #D3D3D3",
">X c #DBDBDB",
",X c #D6D8D8",
"<X c #CBD0D1",
"1X c #C8DAE3",
"2X c #D6DDE2",
"3X c #D9E3E9",
"4X c #E3E3E3",
"5X c #EDEDED",
"6X c #EAEAEA",
"7X c #F5F5F5",
"8X c #F2F2F2",
"9X c #FCFCFC",
"0X c #E8F0F3",
/* pixels */
"                P L.`.'.OXoXoXoXoXoXoXOXoXoXoXoXoXoXoXoXoXoXOXoXoXoXoXOXOXoXoXoXoXOXoXoXoXoXoXOXoXoXoXoXoXoXoXoX].oXOXoXoXoXoXoXoXoXoXoX@X].].oXoXoXoX].oXoXoXoX].].#X].oXoXoXoX#X].oX].OX@X].=X].oXoXoXoXoXoXoXOX#X].oXoX].oXoXoXoXoX].oXoXoXoXoXoX#X].=X].oXoX].#X].oXoXoX].oXoXoXoXoX@X=X].oXoXoXoXoXoX#X[.J.J.J.J.J.J.J.J.J.J.J.K.K.,.T S                 ",
"          P ~.-X2X,X=X[.).).R.R.R.R.).).E.!.E.E.!.).E.E.Q.E.Q.Q.E.!.Q.Q.).Q.E.E.Q.Q.Q.Q.E.E.R.).R.).R.R.Q.).R.Q.E.R.)._.).I.I.T.(.W.T.(.T.(.).T.W.W.W.`.W.W.W.W.(.(.W.W.W.W.`.W.R.I.W.W.(.T.W.W.T.(.(.T.(.I.T.).W.I.Q.I.W.(.T.T.T.I.`._.(.T.W.W.).W.T.T.T.W.).T.I.I.W.).W.W.T.T.(.`.W.W.W.W.(.W.W.W.T.T.).U.K F H H H H H H F G H F H I R P.U.Y.,.L           ",
"      V ~.4X2XU.x $ o @ > ; q p p p q : 0 p 0 0 9 9 p p p q : 0 p p p q : p 0 p 0 : q p 0 p q 9 0 p 0 p > 9 p p p p : . & z k 2 , k 6 t k 1 5 k t k 3 , 3 k t k < < k t 8 k , 4 k t l 4 , k 6 6 l 1 < k 3 k 3 , 3 k 6 8 2 1 l k k k X . 3 k 8 2 % 3 t t k , 1 k 8 8 6 = 4 8 3 t < = t 3 3 t = < 8 3 6 2 % 4 6 6 k < 1 k 3 6 t , 4 t < % X O 2 J I.U.,.S       ",
"    T ;X5XJ.& . - ..N.V.V.g.B.F.D.D.G.l.A.D.S.A.k.k.F.S.D.Z.h.G.D.S.A.k.h.A.D.D.Z.h.B.A.S.S.B.s.C.S.S.A.h.h.A.S.A.G.i.. G 9X7X;X(.5X7X7X5X`.].7X7X7X:XP.,X9X7X8X_.I.0X7X7X>XP.].7X7X7X].Y.>X7X7X6XU.(.0X8X7X-XH.=X8X5X6XW.K.>X6X6X>Xt . >X9X5X;XP.>X8X5X6XT.(.6X5X5X:XR =X5X6X6X_.J.>X6X6X,XJ.(.4X4X6X].U =X4X4X>XP.J.,X2X4X=XI T.-X;XoXU 4 = . % J T.J.P     ",
"  P -X>Xn . + } a.g.a.d.n.$X*X1X3X2X3X0X1X1X2X1X1X1X&X1X&X1X1X#X$X$X#X%X$XXX+X+X|.$X+X{.{.{.{. Xb.b.b.v.n.n.e.v.c.c.8.. b 5X<X,X,X;X;X=X=X<X=X].].'.].#X_._.[.`.'._.I.W.I.U.(.P.J.P.J.J.J.U H.H.U U Y G U I G G F H G S N N m S B S < . ].4X<X,X>X-X;X;X=X<X;X].oX].].%X'._.'._.'.'.W.W.(.I._.I.P.U.Y.L.U.H.K.J.R H.U I y.Y G I A m A n G I J N $ . x Y.H.V   ",
"Z W.-XU . - a.V.B.z..X&X0X0X0X*Xb.M. Xx.m.3.3.m.x.x.z.:.p.m.x.x.3.:.d.x.x.z.;.:.d.z.d.p. .i.d.d.f.;. .s.s.h.u...&.g.2.. l W.U._.).(.I Y (.`.`.Y.B K.Q.(.(.J B P.I.I.J.n G P.P.P.I z Y J.K.H.v v R H.H.I k H H.H.H.B z Y R y.U z m K.3 . `.H.P._.`.).U I (.`.`.U.F R (.(.(.U n Y.(.W.P.S H P.U.P.U M I P.J.J.N M U K.K.U 7 n H.H.K.G z J U.I.U.K U.1 . z R I V ",
"P ).Q.x . f N.a.c.#Xt.r.+X+Xv.:.d +.<.<.=.E d -.<.<.+.s / =.<.=.) d #.<.<.-.f W =.<.<.( s ( <.<.=.W f *.<.<.#.d ) <.$.. 2 I n G I H k x G J G n l n G I G M k H J I D z v G I G n l B I I G v z G I I F k n I I I b z H Y Y G z v Y 2 . U b b G J G z k H G J F k v G I J v k S J I F z v H I I C x n J I J c z G I I H l m I I I n z F P.`.U.F (.K.. , J F V ",
"S H K 2 . 1.u. .3.2.4.4.1./ f ) ( / Q f Q +.+.! E E ~ @.( Q E Q / @.) Q E Q { ( ~ E E ) @./ W E W / { ~ Q f ! @.( ! s . k U.v M z M S B c M M b S m M z M n B b z z v n n v z z v S b M z v n n v z z c S n z z z m B v c z M n n b = . R U m v z M n F v z z b n n v z z n B b M z M n n v z z v B n M z z n C v z z v n N M z z b n b I U y.Y._.U.. & m c C ",
"C c N 1 . 2.u.} } 1.u.&.%.s / =.$.=./ s #.*.$.*.f E *.-.*.@.s ( *.*.*.! d $.*.*.$.d ~ =.$.=.( s #.-.*.*.Q E *.$.*.#.a . z `.G v 8 S G G F z v G F G n k S G H G M z H G G S k n G G G b k F G G G k M G H G B t n G G G M x H G G G , . Y.y.G n k S H H G z z G H G S k m G G G v k F G G F x v G G G n k C G H G M z G H G F k m G H G J.H.'.'.].].. % N m C ",
"V G K 5 . &.%.s s f ) ) f s s Q ) Q d s f ! ~ E s s E ) ! f s d Q ~ Q d s f ) Q f s s Q ~ Q d s f ! ! E s s E ~ Q E i . 3 K.z k k z v v z k k M v c k k l v v z k k z v v x k l v v v k k x v v z k k M v v z k x M v z k k z v M c % . K G z k k l v b z k k z v v x k l v v M k k z v v z k k M v v k k x v v z l t z b v x t k v v c K.Y.I.I.I.L.. , K J V ",
"L K K.4 . / / E Q d i s f ~ Q s a s E Q f a a f Q Q d i s E Q E s i d Q Q f i s E E E s i s E Q f s i f Q Q d i s Q s . < G k M M x t t z z z k t k z M z k 6 x M M k t t z M z k 3 k z M z 6 3 z z M k t k M M z t t z M M l 8 t M , . F c k M v z t k z M M k 6 k z c z k t k M v z t t z M z k t k z z z k 3 k z M x 6 k z z M k 5 G '.[._.Y.H.J.. < R U S ",
"L K.U.8 . ~ { f E f a s Q f Q f i f E E E s a Q E E E u d E E E s a f E E E i s E E E d i f E E E s i E f Q f i s Q s . < F z z z z t t z z z z 3 x z z z k 3 z z z z 3 k z z z k 3 z z z z t 8 z z z z 3 k z z z k 4 z z z x 3 t v , . H z k M x z 6 3 z z z z 3 k z z z k 3 z z z z 3 t z z M k t k z z z k 3 z z z z 6 k z z z 3 S '.oX].=XU.K.J.. 5 T.K.L ",
"L P._.l . f d e a g w w y y e e e e u i u e u e u u e e u u u u e e u u u e e e u u u e y y y u u e e u u u e e e u e . < n 2 4 3 2 2 2 2 2 3 2 4 4 2 2 2 2 2 4 2 3 2 2 2 2 3 2 2 2 2 2 3 4 4 4 2 3 4 4 4 2 4 4 2 2 2 2 4 3 2 4 4 3 % . v k 2 2 4 2 2 5 2 2 2 2 2 2 2 4 4 2 2 2 2 3 2 2 2 2 4 4 4 4 2 4 4 2 2 2 2 3 2 2 2 < 5 2 z H.'.'.'.]._.H.I G . 2 Q.I.L ",
"V (.oXM . u Q w w O.>.u e w r a u u r r e u u u r e u e u y r e u u u r r e i u y e e u y y e r u u u y r r u u u u w . < n 4 2 2 2 4 4 2 2 2 2 4 4 2 2 2 4 3 4 2 2 2 3 3 2 2 2 3 3 3 2 5 4 4 4 2 2 2 4 4 4 2 5 2 3 3 4 2 2 4 4 4 3 & . m z 4 4 2 4 3 8 3 2 2 3 3 3 4 2 4 3 3 4 2 2 4 3 3 3 4 4 3 t 3 2 2 4 3 3 3 2 2 3 k n Y U.oX<X;X-X=X[.U.U H.z . 6 ].).L ",
"  K.].K.. + s i r w j >.>.] h h ' ' h [ [ [ X.[ X.O.O.O.O.o.o.o.o.5.5.5.5.5.5.6.6.7.7.7.7.9.9.9.9.9.0.0.0.q.q.w.w.^.y.. < H k k z z z z M M v b b n n n n B S F F H H G G J J I I Y Y Y R U U y.y.R K.K.J.J.J.J.L.P.P.P.P.U.I.T.I._.k . I.'.).(._._._._._._._.[._.'.'._.[.[.'.'.'.'.'.'.'.'.'.'.'.].].].].].].].].].].=X-X,X>X,X:X<X-X=X_.J.I I n X . U ].L.C ",
"  V K.W.n . o 9 i a e u j >.9.9.9.9.0.r.0.0.r.r.r.r.r.r.^.^.^.^.^.^.^.^.^.}.}.}.}.}.}.}.}.|.|.XXXXXXXXXX@X@X#X#X#X%X/.. 3 (.H.K.y.J.L.Y.L.P.P.P.P.P.P.I.U.I.I.I.W.W.(.W.(./.(._.`._._._._._._.'.!.'.'.].].].].].oX].].=X].=X%X=X=X,Xn . '.-X].=X=X=X=X=X=X=X=X%X=X=X;X;X;X;X;X;X;X;X;X-X-X-X<X<X<X-X-X-X<X<X-X:X<X<X:X:X<X-X-X;X].'.W.J.U I G k . . z W.J.D   ",
"    V Y K.H = . o : w u y y i g h j [ ^ _ _ _ _ _ _ _ _ _ _ _ _ _ _ ` ` ` ` ` ` ` ` ] ] ` ` | ` | X.| ` | X.| | ] | ^ . t P.H G F J G H G G F G G G G G G G G G G G G G G G G G G G G G G G J J J G J P G I G I G I I I I J J I P Y 2 . P.J.I I I I I I Y I I Y I I Y Y Y Y Y Y Y U U Y U U Y U U U U U U U U U R ,.U U R ,.,.U K J F n z 5 X . % B K.Y S     ",
"        F J J c 5 & X o # @ # + @ + + + + + o + + + + + + + + + + # + + + + + # + + + + @ X @ @ + @ @ @ @ @ @ @ @ @ + . X $ X X X X X O X X X X X # X X X X X O X X X # O X O O O # O O O $ # O O $ $ X O O O O O X X O $ $ # $ X $ X . % & X # $ $ $ # $ $ $ $ $ $ $ $ $ $ $ $ $ $ $ $ $ $ $ $ $ $ $ $ $ $ $ $ $ $ $ $ $ $ $ $ % & O X o X < c J J F         ",
"            C n N m c x x l l l 7 7 7 7 7 7 7 7 7 7 7 7 7 7 7 7 7 7 7 l 7 7 l l l l 7 7 6 7 6 x l l 7 7 l 7 7 7 7 7 7 l l 8 l l 7 7 7 7 7 7 8 8 7 7 7 7 8 8 7 7 7 7 7 7 7 7 7 7 l l l 7 l l l l l l l l l l l l l l 7 7 8 7 l l 8 l 7 x 8 8 7 l 7 7 7 l 8 l 7 7 l 8 8 l x 8 8 l 8 7 8 8 8 7 8 x 7 7 l l l l l 8 l 7 l 8 l l l l 8 8 l x c n B B C             ",
"                  C b b b b b b b b b b b b m b b b m b m b b b b b b b b b b b b b b b b b N b b b b b b b b b b b b b b b b b c v b b b b b b b b b b v b b b b b b b b b b b b b b b b b b b b b b b b b b b b b b b b b b b b b b v b b b b b b b b b b b v b b b b b b b b b b b b b b b b b b b b b b b b b b b b b b b b v b b b b b                   "
};
