/* XPM */
static char *result[] = {
/* columns rows colors chars-per-pixel */
"175 20 107 2 ",
"   c #010101",
".  c #070708",
"X  c #070808",
"o  c #0A0A0A",
"O  c #151515",
"+  c #171718",
"@  c #171818",
"#  c #1A1A1A",
"$  c #201F1D",
"%  c #22211F",
"&  c #242424",
"*  c #282624",
"=  c #272728",
"-  c #2C2C2C",
";  c #31302F",
":  c #2E2F31",
">  c #353535",
",  c #383736",
"<  c #3B3B3B",
"1  c #46423C",
"2  c #48443F",
"3  c #3F3F40",
"4  c #403F40",
"5  c #434343",
"6  c #4A4640",
"7  c #4C4945",
"8  c #4C4C4C",
"9  c #514E48",
"0  c #56514D",
"q  c #4F4F50",
"w  c #545354",
"e  c #5A5652",
"r  c #5B5955",
"t  c #555358",
"y  c #5B5B5B",
"u  c #615B56",
"i  c #615E5C",
"p  c #63615E",
"a  c #4B4F61",
"s  c #535666",
"d  c #575864",
"f  c #595A64",
"g  c #555969",
"h  c #5C5E6B",
"j  c #615F60",
"k  c #5E606E",
"l  c #646464",
"z  c #6A6461",
"x  c #6E6A66",
"c  c #61626C",
"v  c #6B6B6B",
"b  c #706A66",
"n  c #706F6E",
"m  c #74706E",
"M  c #7A746F",
"N  c #626471",
"B  c #676976",
"V  c #6A6D7A",
"C  c #6F717D",
"Z  c #747474",
"A  c #787775",
"S  c #7C7976",
"D  c #757579",
"F  c #7B7B7B",
"G  c #817F7C",
"H  c #84837F",
"J  c #727481",
"K  c #7C7C82",
"L  c #838383",
"P  c #8C8A85",
"I  c #86868B",
"U  c #87898C",
"Y  c #8C8C8C",
"T  c #908F8D",
"R  c #91908F",
"E  c #8E8D91",
"W  c #8D8F99",
"Q  c #949493",
"!  c #989796",
"~  c #989897",
"^  c #969798",
"/  c #9B9B9B",
"(  c #A29F9C",
")  c #A4A19D",
"_  c #AAA29D",
"`  c #A4A4A4",
"'  c #A9A7A6",
"]  c #A5A6AB",
"[  c #ABABAB",
"{  c #B3B3B3",
"}  c #B8B8B7",
"|  c #B3B4BA",
" . c #BCBCBC",
".. c #BEBFC5",
"X. c #C3C3C3",
"o. c #CDC8C3",
"O. c #C4C5CA",
"+. c #CBCBCB",
"@. c #CFD0D3",
"#. c #D2D2D2",
"$. c #DBD9D7",
"%. c #DBDBDB",
"&. c #E3E3E3",
"*. c #EBEBEB",
"=. c #F4F3F3",
"-. c #FAFAFA",
";. c None",
/* pixels */
";.;.;.;.;.;.;.;.C W ] | X.O.X.O.O.O.X.O.O.O.O.O.O.O.O.O.O.O.O.O.O.O.O.O.O.O.O.O.O.O.O.O.X.X.O.X.O.O.O.O.O.X.O.O.O.O.O.O.O...O.O.O.O.O.O.O.O.O.O.O.O.O.O.O.O.O.O.O.O.O.O.O.O.O.O.O.O.O.O.O.O.O.O.O.O.O.O.O.O.O.+.X.O.O.O.O.O.O.O.O.O.O.O.O.O.O.O.O.O.O.O.O.O.O.O.O.O.O.O.O.O.O.O.O.O.O.O.O.O.O.O.O.O.O.O.O.O.| R R Y Y R R W R Y E R U U G C k ;.;.;.;.;.;.;.;.",
";.;.;.;.;.V ] @.&.#. .[ ` / / / / / / / ^ / / ^ / ^ ~ / / ~ ~ ~ / / / ^ ~ ^ / / ^ ^ ^ ~ / / ^ / ^ / / ~ ^ ~ Q / / ^ Q Q / ` ~ Q ^ Q Q ~ Q R Q Q Q ^ R Q Q Q ^ Q R Q Q Q ^ R R R R ^ ^ R R R Q ^ R R R R ^ R R R R R ^ R R Q R ^ ^ R R ^ ( ~ Q / / Q ^ ~ ~ / ~ Q Q Q / / Q ^ Q ^ / ^ ~ ~ ^ ^ / Q Q ~ Q / / Y v y p l l y p y l l y l l v G R / R K N ;.;.;.;.;.",
";.;.;.k ] &.$.U 5 o     X # ; > # - , > < - # < < , 3 & = 3 < 3 3 $ < 5 3 5 ; & 5 3 3 5 = : 5 3 5 < % < 5 5 7 : = 8 7 q #   , q 5 8 5 & 8 8 5 8 > : 8 7 8 7 = 5 8 5 8 < - 8 5 8 8 - < 8 5 8 3 = 7 8 5 8 : > 8 5 8 5 = 5 8 8 8 : : 8 q -   < w - < w q w 7 & 7 w q e > ; w q w 9 = 3 q 8 q 3 - 8 9 8 w - < 8 8 w 8 - 8 w 8 r < : w 7 > # X o ; l ~ / K k ;.;.;.",
";.;.J +.*.L O     # ; y [ O.@.} Z ` &.%.&.[ F +.&.&.%.Y ~ &.&.*.O.F  .*.&.*.[ P %.*.*.&.R [ *.*.=.O.U @.=.*.=.[ ^ *.*.-.y   ` =.*.=. .L #.=.=.=./ / =.=.=.$.U O.-.=.=.} Q *.-.=.*.R } -.=.-.+.R &.=.=.=.` | =.=.=.%.^ %.=.=.=.{ [ =.-.`   { -.^ { =.*.=.O.R @.=.*.*.` / &.*.*.#.U } *.*.*.[ U @.*.&.%.P / &.&.&.} F } &.%.%.Y F X.+.X.` q , O X $ x ) Y B ;.;.",
";.V +.$.t       5 l Z v k v k j v v F Y G F H G R ^ U R R R ` / ^ ` / ` { ` ' { [ } } { } } } X.X. .+.X.+.@.+.@.#.#.$.=.5   q l v l y k i Z F l l v Z U L Z F F P ^ U L Y Y ( ` R / / ( { ` ` [ ] { } [ } } } .. . .+.X.+.#.+.@.#.@.*.`   U &.$.#.X.X.X.+.@. .} } } X. .[ [ ] [ } [ / ` ^ ` ` R R R U ^ P F U G F L Z Z F v n v w y y y Z Z v 3     5 R P c ;.",
"a ] o.A     o F L H ^ Q A 8 e G L L v 5 v L U L y w F R Q H w v ^ / ( F y U ` [ ` Z Z ` { { / Z Y { { } R F ` } } { U  .<   H v 7 k G L F w 7 Z L H Z 5 w F L L l 7 v Y Y L y y U / / L y F ` [ ` F v / { { ` n H { { { ^ D / } } [ ` G   w [ ` [ R l Y ` ` ` Z l ~ ` ` Q y Z ` / / A w L ^ Q R y y P Y U A 7 v U L L y 8 F L L F 8 p Y / / F Q v     7 G v g ",
"B ( _ 6     r } k Q ` ( Z 9 r D F F k 7 k F A A w 8 Z A A v 8 y A D D j 5 v D Z n 8 8 Z Z A v 5 y A Z A r 5 v Z D n 7 Y - X F v 7 x F F F y 8 A F F Z 8 j F F F k 7 n F F A w q D A F v 5 k A Z A y 5 n D D n 7 w Z Z Z y 5 l Z D v v i   - v v v r 3 r v n x 8 8 k n n k 2 q v n v r 8 y n Z v 8 8 v Z n k 8 y n Z n w 8 l n Z v 8 q F ` / F D } &   % x p k ",
"j z M >     F [ R L F A w r w 8 q q 0 y q 9 q q w y 8 q w w w w 9 w q w r q q w q r w q w q q y w q w q w y q w w q y P #   w q w q q w 9 w w 8 w w q r q 8 w q w r 8 q w q w q 8 w w q y q 9 w q w r q q w 8 y w 8 w q w y q q w q A A   , y 8 8 r k y q 8 8 y y w 8 8 0 j j q 8 8 r y y 8 8 8 y y q 8 7 w y y 8 8 8 y y w 8 8 q y y j F F R / } <   % e 0 d ",
"g e u *     / X.{  .L I n l v j 5 y v v v q 5 v v v l 5 w v v v r 5 k v l v 8 8 x v v k 3 y v v v w 5 l v v l 5 q v n [ # X y v v v q 5 l v v l 5 q v v v y 3 y l v v 8 7 k v v k 5 t v v v w 5 k v v l 7 q v v v y 3 y v v v q 5 j Y Y   < v 5 q v k v y 5 l v l v 8 8 l v l l 5 y v l v t 5 l v v v 5 q v v v y 5 y v l v q 7 v v l K L /  .[ @.9   % i e f ",
"k v M ;     L ` / / Y U w r w 7 5 7 w r q 5 5 q y w 8 5 7 w y w 7 3 7 r r w 5 5 q y w 8 3 8 t r w 7 3 q r y w 5 5 r l R O X 9 y y r 5 5 w y y w 3 7 y y w 8 3 q y y w 5 5 e y y 8 3 8 t y y 5 3 q r y q 5 5 q y w 8 3 8 r w q 5 5 8 Z A   - q 5 5 q w q 5 5 5 q w q 5 5 8 w q 8 5 5 q w q 5 3 8 w w 7 5 5 8 q q 7 5 5 w w 8 5 5 7 w 8 v Q Q ` Q [ <   & n b h ",
"j A L ,   . L I Y ' [ { n ; 5 8 8 8 5 3 5 8 8 5 3 3 7 8 8 3 3 3 8 8 7 3 5 5 8 8 5 5 3 7 8 7 5 3 3 8 8 7 5 3 5 8 8 3 5 n o o 8 3 3 5 8 8 5 3 3 5 8 8 5 3 3 7 8 7 5 5 5 8 8 5 3 3 6 8 7 3 3 3 7 q 7 3 3 5 8 8 5 3 3 8 8 8 5 3 5 8 q 5 y w   & 8 8 8 5 < 5 8 q q 3 < 7 q q 5 < 5 8 q 8 5 3 5 q q 7 3 3 8 8 q 5 3 5 8 8 8 3 3 7 8 q 8 , 6 ( { [ / F / 5   - L D j ",
"k L ! 4   o Y L Q X. . .} k < 7 8 8 5 < 8 q 8 8 3 3 8 8 8 8 < 7 q 8 q 5 < 8 8 8 8 < 3 q q q 7 < 8 q 8 q 5 < q q q 8 5 Z O o w 5 < 8 q q q 3 3 8 8 q 8 < 5 q q q 5 < 8 q 8 q 3 5 q 8 q 8 < 7 q q q 3 3 9 q q 8 < 5 q 8 8 5 < 8 8 8 8 w q   - q 8 8 8 < 7 q 7 8 5 < 8 8 7 8 < 5 8 8 8 5 < 7 8 8 8 < 3 8 8 q 5 < 5 8 8 8 5 3 8 8 8 3 3 Q X.} ..{ F / 5   > ! P N ",
"N ^ ' 5   . v Z P [  .} } } P q > - - : : > > > > > > > > > > > < < > > > > < < , , > , < , > > > < < < > > , < < > < y X o < < > , < < < > > < < < < > < < < < , > , < < , , , < < < < , , < < < > > < < < , > > < < > > > > < < > 8 5   % < < < ; > > > < > > > > , , > > > , , , > > > , , > > > , , , > , > , , > > : - : < l ] } {  .{ ^ D F -   > ` ~ B ",
"k `  .q     7 L D Q [ X.+.O.#.O.` L v r 8 5 3 5 5 5 5 < 3 3 3 3 3 < < < < < > < < < < , > > < < < > > > < < , > > > 5 y X o > , , > : : > < > > : : > < > : : > , , > : > > > , > : ; > < , : : > , < > : : > , , > > > < < > > ; > w 5   = < ; : < < < > ; , < < , > > > < < > > > , , > > > , < < > > > , , < > > > 5 8 l L [ +.+.X.O. .` L F Z O   4  .' c ",
";.U  .L     o 8 Z Z L / } +.+.#.%.%.%.#.#.+.+.+.O.X.X.X.X.X.X. . . . . . .}  .} } } { { { { { [ [ [ [ [ ] ` ] ` ` ` [ [ X = ` ~ Q ^ Q R Y Y Y P U L L L L L F F F F F D Z Z v n v v v v l l l l l l p j y y r r r w w q q q 8 8 8 5 l 5   F [ ( ` [ [ ` [ ` [ [ [ [ [ [ [ [ [ [ [ { { [ { { { { { { { { { { } { } } } X.@.$.%.#.#.+.O.} / F Z Z -     D  .E s ",
";.k U ` w       & w l n F Y / [ { } }  . . . . . . .X. . . .X. . .X. .X. . . . . ... ... .X. .X.X. .X. . .X.X. ... .X.+.X , #. .X.X.X. .X. . . . .} } { { { { { [ { [ [ [ ] [ [ ' ` ` ` ` ( ` / / / ^ ^ ^ ^ ^ ^ Q Q R R R Y Y Y Y L ` y   ^ +.X.X.X.X.X.X.+.X.X.O.O.O.+.+.+.+.+.+.+.+.+.+.+.+.+.@.+.@.@.@.#.@.#.#.#.#.#.@.+.+.X. .[ ~ G Z n r &     7 ( T N ;.",
";.;.k D P p #       o & - > < < 5 5 3 5 5 5 5 5 7 7 5 7 8 7 8 8 7 8 8 8 q q q q w w w w w w w w y r w t t y r t y r l U . + l y y p y i y y l j j y k p p l l k p l l l l l l l l l l l l l l l l l l l l l j l l l l l l l j l l j Y 8   l F D F F D F F F F F D F F F F F F F F K G F F F G L G F L F F L F L L L L L L L G F Z v l y 5 &     @ y P F k ;.;.",
";.;.;.g l m n 9 - O             X                                                                                               X X X X X X X X X X X X X X X X X o X X X X X X o X o X o o . . . . o . o o o o o o o o o o o o o o @ o   O O O O O O O O + O O + O + + + # + + + + + # + O + # # + + + + # # + + + + + + # # # # @ o .   o * 7 x m l g ;.;.;.",
";.;.;.;.;.;.f i i e 9 7 6 6 6 2 6 6 2 2 2 5 6 6 2 6 2 6 2 2 2 2 2 6 2 6 2 6 2 6 2 2 1 2 1 6 6 1 2 2 6 2 2 2 2 6 6 6 2 2 2 2 2 2 1 2 2 2 2 2 1 1 2 2 2 2 2 2 2 2 2 2 2 2 2 2 1 2 2 2 2 2 2 2 2 2 6 1 2 1 1 1 1 1 2 1 1 1 6 2 1 2 1 2 2 1 2 1 1 2 1 2 2 2 1 2 1 1 4 1 1 1 1 1 1 1 1 4 2 2 1 1 1 1 2 1 1 1 2 1 1 1 1 1 1 1 1 1 1 1 1 2 1 6 8 r p p f d ;.;.;.;.;.",
";.;.;.;.;.;.;.;.;.t t t t t t w w w w r t t t w w t w t t t t w t w t t w t t w t t w w t w t w w w w t w t w t t t t t w w t w w w w w w w w w t t w t w w w t w w w w w w w w w t w w w w w t t t t t e t t t t w t t t w t t w t t w t t w t w t w t w t t w t t w t w e t t w t t w t t t t t t t t t w t w t w w t t t t t w t w t t t ;.;.;.;.;.;.;.;.;."
};
