/* XPM */
static char *_bbdaac21a844f3ed3d2e974aeb16e87firlnHhvLeZLOd3P[] = {
/* columns rows colors chars-per-pixel */
"175 20 233 2 ",
"   c None",
".  c #000000",
"X  c #0B0B0B",
"o  c #02060C",
"O  c #000A16",
"+  c #000D1B",
"@  c #000710",
"#  c #131314",
"$  c #1D1D1D",
"%  c #191818",
"&  c #0E0E10",
"*  c #000F20",
"=  c #001122",
"-  c #001827",
";  c #001C31",
":  c #002C3E",
">  c #2C2C2C",
",  c #262524",
"<  c #353535",
"1  c #3B3B3B",
"2  c #3B3835",
"3  c #322F2E",
"4  c #21201E",
"5  c #433F3A",
"6  c #4A4137",
"7  c #44403B",
"8  c #4A4239",
"9  c #002B45",
"0  c #002643",
"q  c #003549",
"w  c #003C4B",
"e  c #003247",
"r  c #00365D",
"t  c #003658",
"y  c #083659",
"u  c #003A63",
"i  c #003E6A",
"p  c #033866",
"a  c #00454E",
"s  c #00484F",
"d  c #004B51",
"f  c #004550",
"g  c #01416D",
"h  c #004474",
"j  c #00467A",
"k  c #004A7C",
"l  c #004874",
"z  c #0E4D77",
"x  c #345E7E",
"c  c #444444",
"v  c #4C4C4C",
"b  c #4A4845",
"n  c #535353",
"m  c #555458",
"M  c #5D5D5C",
"N  c #5B5754",
"B  c #4F504E",
"V  c #625E5B",
"C  c #62615F",
"Z  c #595B68",
"A  c #4C4F61",
"S  c #615F61",
"D  c #5C616D",
"F  c #5F6271",
"G  c #646363",
"H  c #6B6B6B",
"J  c #686667",
"K  c #75726E",
"L  c #636571",
"P  c #696C79",
"I  c #737373",
"U  c #7C7C7C",
"Y  c #787678",
"T  c #716A66",
"R  c #827F7C",
"E  c #004E83",
"W  c #015086",
"Q  c #00548B",
"!  c #015A8C",
"~  c #005591",
"^  c #015A95",
"/  c #005D9B",
"(  c #105686",
")  c #00639C",
"_  c #026193",
"`  c #097194",
"'  c #26638C",
"]  c #276087",
"[  c #34728D",
"{  c #3B768F",
"}  c #256995",
"|  c #246D9C",
" . c #256691",
".. c #3C7891",
"X. c #306E90",
"o. c #0061A3",
"O. c #0066AB",
"+. c #0069AE",
"@. c #006CA4",
"#. c #0179A8",
"$. c #006CB3",
"%. c #006EBC",
"&. c #0066B1",
"*. c #0075BB",
"=. c #1472A5",
"-. c #2372A4",
";. c #2276AB",
":. c #2678AB",
">. c #2179B0",
",. c #2C75A2",
"<. c #105B92",
"1. c #437B94",
"2. c #497F97",
"3. c #567F9A",
"4. c #7A7B82",
"5. c #006FC1",
"6. c #0071C1",
"7. c #0286AB",
"8. c #048BB2",
"9. c #0596B7",
"0. c #1795B5",
"q. c #2583B9",
"w. c #3294B5",
"e. c #12A3BD",
"r. c #4D8299",
"t. c #4E889F",
"y. c #54869D",
"u. c #58889F",
"i. c #5C8BA0",
"p. c #4393B7",
"a. c #618EA3",
"s. c #6591A5",
"d. c #6596AA",
"f. c #6B9AAD",
"g. c #6C95A8",
"h. c #749AAD",
"j. c #789DAF",
"k. c #6E9DB0",
"l. c #779FB1",
"z. c #52A4BE",
"x. c #7AA3B5",
"c. c #7AA4B7",
"v. c #0089C8",
"b. c #058BD4",
"n. c #0299D8",
"m. c #1299DC",
"M. c #0F90C8",
"N. c #3797CC",
"B. c #02A5D9",
"V. c #16A6DC",
"C. c #2AA6DC",
"Z. c #38A8D1",
"A. c #01A9E1",
"S. c #18A8E4",
"D. c #14B6E8",
"F. c #01BEE9",
"G. c #25B3EB",
"H. c #48A7DC",
"J. c #55ABDD",
"K. c #50B0CA",
"L. c #79B4C8",
"P. c #6FAFC9",
"I. c #54AEE1",
"U. c #4CACE1",
"Y. c #6EB8E3",
"T. c #4096C8",
"R. c #02C8EA",
"E. c #17CAF2",
"W. c #17D7F6",
"Q. c #0BCDF3",
"!. c #25CFF5",
"~. c #03E8FD",
"^. c #1AE7FD",
"/. c #06F5FF",
"(. c #1BF4FF",
"). c #26E8FE",
"_. c #2CFAFF",
"`. c #27F5FF",
"'. c #33FBFF",
"]. c #32F7FF",
"[. c #51C2D2",
"{. c #838383",
"}. c #8C8C8C",
"|. c #8A8989",
" X c #8E8E92",
".X c #949493",
"XX c #9B9B9A",
"oX c #989798",
"OX c #92908D",
"+X c #A39390",
"@X c #A39892",
"#X c #A29A98",
"$X c #A5A19E",
"%X c #83ACBD",
"&X c #A3A3A4",
"*X c #ABABAB",
"=X c #A8A6A8",
"-X c #B4B4B4",
";X c #BCBBBB",
":X c #B5B7BB",
">X c #A8AAB2",
",X c #8CB2C2",
"<X c #89BACD",
"1X c #92B6C6",
"2X c #95BACB",
"3X c #9BBDCC",
"4X c #98B6CD",
"5X c #8BB3C6",
"6X c #9DC2D1",
"7X c #A8C7D6",
"8X c #B9CED9",
"9X c #B9CDD8",
"0X c #B9D5E2",
"qX c #88C2E2",
"wX c #C4C4C4",
"eX c #C3C7CC",
"rX c #CCCCCC",
"tX c #CEC9C3",
"yX c #C4D5DE",
"uX c #D2D2D2",
"iX c #DBDBDB",
"pX c #DBD9D7",
"aX c #CECFD3",
"sX c #CDDBE3",
"dX c #C5D8E4",
"fX c #D8DEE2",
"gX c #DAE3E8",
"hX c #C9E2EB",
"jX c #E4E4E4",
"kX c #ECECEC",
"lX c #E4E6EA",
"zX c #F4F5F6",
"xX c #EAF2F5",
/* pixels */
"                4..X>X:XeXeXeXeXeXeXeX9XeXeXeXeXeXeXeXeXeXeXeXeXeXeXeXeXeXeXeXeXeXeXeXeXeXeXeXeXeXeXeXeXeXeXeXeXeXeXeXeXeXeXeXeXeXeXeX9XeXeXeXeXeXeXeXeXeXeX9XwXeXeXeX9XwXeXeXeXeX9XwXwXeXeXeXeXeXeX9XwXeXeXeXeXeXeX9XwXeXeXeX9XwXeXeXwXeXeXrXeXeXeXeXeXeXtXeXeXtXeXwXeXeXeXeXeXeXeXeXeXeXwXeXeXeXeXeXeXeXrX:X X X X X}. X X}. X X X X|.a.R S                 ",
"          P >XuXfXuX;X=X+X+X@X+X+X+X+X+X+X+X+X+X@X+X+X+X+X+X@X+X+X+X+X+X@X+X+X+X+X+X+X+X+X+X+X@X+X+X+X+X@X@X+X+X+X+X@X@X+X+X+X+X@X+X+X+X+X@X+X+X+X@X+X@X+X+X+X+X+X@X+X+X+X+X@X+X+X+X+X@X@X+X+X+X+X@X@X+X+X+X+X@X+X+X+X+X+X@X+X@X+X@X&X.XOX.X.XXX.X.X.X.XoXoXOX.X.X.XXX.X.X.XOX.X#X.X.X.X.XXXoX.X.X.X.XXX.X}.T m C C V V M V G M M V G H R OX+XOX4.L           ",
"      F >XjXpX|.2 X o - e 9 a d s s a : a d f f e e d a d a 9 a d d d w 9 d d f d 9 w d d d w 9 a d d d q e d a d f 9 t d a d w : a a a d e w d f d a 0 a s a s e 9 d s a s 9 w d s s w 9 d d f d e e d f f f 0 f f d d q 9 d f d - . c n v 1 $ c b b v > > v b b c $ 2 b b v < , c b c b , < v c c 5 $ c c c B < > b b b v , c v < 4 X . X 3 H oXoX4.L       ",
"    4.eXkX{.& . - ` R.~.Q.A.E.`.'.'.!.G.].'.'.].G.!._.].'.).G.!.'.'._.G.S.`.'.'.].S.E._.'._.!.m.W.'.'.`.D.S.`.'.'.^.m.W.`.].`.E.m.^._.].^.m.D.).].`.E.m.W.`.`.`.D.m.(.`.`.W.m.D.(.`.(.D.b.W.(.(.^.n.A.^.(./.R.b.R././.~.B.b.~.~./.` . iXzXzXaX.XiXzXzXkX=X=XkXkXzXuX}.9XkXkXkX-X XpXkXkXiX}.&XjXjXkX;X{.wXjXjXiXoX}.uXjXjX;XY XXrXtXwX4.c > . . 4 T $X}.P     ",
"  P rXpXn . + ` A.A.B.Z.<X0XdXsXlXlXkXkXgXgXlXlXgXlXsXgXsXsXgXyXsXdXyXsXsX8X0X8X9XyX8X7X8X7X9X8X7X7X7X6X7X7X2X6X2X3X6X2X5X<X<X<X<XL.5XL.P.L.L.P.P.P.P.P.z.P.K.p.K.z.w.z.z.w.Z.0.w.w.0.0.M.0.0.0.0.9.9.7.8.7.8.9.7.7.8.#.7.7.#.7.7.a . :XjXrXpXiXrXwXwXwXrXeX;X;X:X;XwX-X*X*X=X-X-X&X&XXXXX=XXX X.X}. XoX{.{.{.U s.R T U Y H H D m M M J I H D $ . . c OX{.L   ",
"A &XtXU . - B.~.R.U.4XsXxXxXzXhX<XqXY.Y.I.p.:.I.I.I.H.,.T.I.J.I.T.,.H.I.J.I.,.q.U.J.I.T.,.N.I.J.H.>.-.H.J.J.N.=.q.H.U.Z.q.=.N.Z.Z.Z.=.=.C.C.Z.M.^ 0.V.C.V.#.) M.V.B.n._ #.B.B.B.8._ v.B.B.B.) ) n.n.n.v.Q *.n.n.n.@.Q v.n.n.v.Q #.g . &X{.}.*X=X&XY I &X=X&XoXV U &X$X&XU M }.&XXX.XV G .XoX.XU B I  X|.|.S v R |.{.R 8 V {.{.|.H c I XXXX.XY XX3 . . b R H Z ",
"P $X$Xb . W R.B.P.dX<X4X0X0XP.,.k / %.6.&.E E &.5.5.o.i ~ %.6.%.Q i o.%.5.&.j W &.5.5.^ i / 5.5.$.W k &.6.5.O.j ~ %.5.%.^ j o.%.6.&.E W %.5.5./ h / %.6.%.Q k +.6.6.O.k ~ *.6.%./ j o.5.%.$.W E $.6.6.@.j ^ *.%.%.~ j O.6.6.&.k / t . U m m H H J v c G I H V c n H H H n c G H I J v v H I H M b M K I H n v H I I J v N H I I M b D .X&XoXJ &X|.. . 4 T C Z ",
"Z T K < . 8.8.,.L.P.<X<Xp.<.E ~ o.^ W E W / / Q E E ~ o./ W z W ^ o.^ E E Q ) ) Q E E ^ O.^ W E W / o.Q E E W o./ W E E ^ o.^ W W Q / / Q E E ^ o.^ W k W / o.Q W E W ) / Q E E ^ o.^ E k W ) ) Q E k ~ o.^ W W E / o.^ E E W / O.9 . U U N B v B Z M N v v m S M n B B m G m B v B Z V n v v m S m v v B M Z n v v n M M n v v m M n K U {..X*X.XX . % V n Z ",
"Z N V , . 9.n.w.w.z.[.Z.o.h ^ $.&.$.^ h O.$.&.$.k W $.$.$.o.h / $.&.$.Q j +.$.$.+.j Q $.+.%./ h o.$.&.$.E E &.$.$.O.h ^ $.&.$.^ l +.&.$.+.j Q $.+.$.) h o.$.&.$.W E &.&.$.O.h ^ $.&.%.^ h O.$.&.+.k W $.&.$.o.h ) $.&.$.Q j &.&.%.t . oX{.J m c G H J H v v J J H G c M H J H m c J H H J c n H J H M c Z H J H B b H J J G c m H J J |.{.-X-X;X:XX . 4 V N Z ",
"Z H K 3 . #.@.` _ 7.7.k E h j W ^ W j h k Q Q E h h E ~ Q k g k Q Q W j g W Q Q k h j W Q W j h k Q Q W h h W Q Q k h l W ~ W j h k ~ Q E h j E ~ Q j h j W ^ W h h E Q Q k h h Q Q W h h k Q Q E h h W ~ W k h j W ^ W j i E Q / 9 . I H B c c b B m B c c v n m c 1 c B m B c c b n m v c c B N B c c c B n B c c v n m c c c B n B |..XXXXX#XOXX . , K T Z ",
"F K {.2 . ^ _ ^ ` ! l l E W E h g h E W k h i k W E j i h E W E h i l W W j g g k Q E h g h E W k g g k W W j i h E W E h i j E W k g g k W W j g h W W k g g l W W j i h E W E h g j W W E i h k W W l i h E W E h g l E W E p j : . G n c B B v 7 1 c B B c 1 c v n v c 1 v v v b c 1 v v B c c c v B v c c b B B c 7 c v B B b < J -X*X*X|.R }.X . > R R D ",
"L |.oX5 . ^ ) k k l g l E E E j i k W E E g i E E W k i j E E E h i E W W W g g E W W j i k E E W h i W E W k i h E E W h i E E E W i h E E E j u j W E W h g E E E E i h W E W k u k E E E g g E E E E i j E E E h i E E E E p j 0 . G B c v v v c c v v B B 1 c v v v c 1 b v v v 1 c v v v c 1 c B v v c 1 v v B v 1 c B B b 1 M :X;X;XwX+XR OXX . < OX}.L ",
"L .X*Xc . E j r g z y t r u u r r u u u u r u u u u r u u u p u u r u u u u r u u u u u r u u u u r r u u u r u u u u u r r r u u r r r u u u r r r u u u r u r u u u r r u u u r u r u u u r r u u u r u r u u r r r r u u r t u ; . n c < < 1 < < 2 < 1 < < < < < 1 < < < < 2 1 < < < < 1 1 < < < < 1 < < < < 1 < < < > > 3 b {.:X-X:X;X*X|.R J X . < =XoXH ",
"F &X;XB . p E t y x { g u t t u u u r t u u u u r r u u u r t r u u u r t u u u r t r u u u r t u u u u r r u u u r r r u u u r r u u u u r t u u u u t r u u u r t u u u u t t u u u r t r u u u t t r u u r t r u u t r t r t g ; . m v 2 < < 2 1 1 2 < < < 1 1 < < < 1 1 2 < < < 1 1 < 3 < 1 1 < < < < 1 1 2 < < 1 c N I .X;XrXwXtXwX-XXXU a.v . . c ;X=XL ",
"   X;X{.. O l u t y x u.r.1.[ [ X.X.[ [ [ [ [ [ [ { { { ....{ 1.....1.1.1.1.1.1.1.1.1.2.1.r.2.2.r.r.r.r.r.y.y.y.y.i.y.y.i.i.y.i.u.i.i.i.i.i.i.i.a.a.a.a.a.s.s.s.s.s.s.g.g.g.g.g.g.g.f.h.h.h.h.h.h.h.h.j.j.j.j.j.x.j.j.%Xj.%Xj.%Xc.A . .X-X$X$X$X=X=X*X=X=X*X>X*X*X*X*X*X*X*X*X-X-X>X>X-X-X-X-X-X-X-X-X-X-X-X-X:X:X:X;XrXaXiXpXuXuXrXwX*X}.I U M # . . I ;X XZ ",
"  Z |.$XN . @ t g g t p ] 3.a.s.s.d.d.d.d.d.f.d.f.d.f.f.f.f.f.f.k.k.f.k.k.k.k.k.x.k.x.x.x.x.x.x.x.x.c.c.c.c.c.c.c.c.c.%Xc.%Xc.,X%X%X%X%X%X%X,X,X%X,X%X,X,X,X,X,X,X,X1X,X1X,X1X1X1X1X1X1X1X2X1X1X2X2X4X2X2X3X3X3X3X3X6X3X6X6X3X3X7XD . *XuX;XwXwXwX9XwXwXwXwXeXeXtXeXtXeXrXrXeXrXrXrXrXrXrXrXrXaXaXaXrXuXuXuXuXuXaXuXuXuXaXrXeXwX-X&X}.Y I H c X . . b $X}.L   ",
"    Z Y |.C % . + : t i p p h z z ] ] ' ' ' ' ' ' ' ' ' ' ' ' ' ' '  .' '  .'  . . . .}  .} } } } } } | | } | | | | | | | | | | | | | -.| -.| -.-.| -.-.-.-.-.-.-.-.-.-.-.-.-.;.-.;.;.;.-.;.;.;.;.;.;.:.>.>.:.>.>.>.>.>.>.>.>.;.M.y . XX.XI U Y U Y U U U U U U 4.R R U U 4.R R R 4.R 4.R {.4.R {.R {.R {.{.{.{.{.{.{.{.{.{.R U K J M n < # . . % N |.U D     ",
"      Z J K T B , & X @ + * + + + + O O + + @ O O O + + O O + + + + + + + + + + + + + + + + + + + + + + + + + + + + + + + + * = + * * + + + + + * + + * + + + * * * + * = = * * * = * = = = = = = = = = = = = = = = = = = - = = - & . 4 % # # # & # # # # & # # # # # # # # # # # # # # # % # # # # # % # # # % # # # % % # % % # # X . . X , b T K G Z       ",
"            Z C V N B 8 8 8 8 8 8 8 8 8 8 8 8 8 8 8 8 8 6 6 5 6 8 8 8 8 8 8 8 8 8 8 6 8 8 8 8 8 8 8 8 8 5 6 8 8 8 8 8 8 8 8 8 8 8 8 8 8 8 8 8 8 6 8 8 8 8 8 8 6 8 6 8 5 6 6 6 6 8 8 8 8 6 5 8 8 5 6 6 6 5 6 6 6 6 6 6 6 6 5 6 6 5 7 b 5 5 7 7 5 7 7 7 7 5 5 5 5 7 7 7 5 5 5 5 5 7 7 5 5 8 7 7 7 5 5 5 5 5 5 5 5 5 5 5 5 5 5 8 5 7 5 c b B N C C Z Z           ",
"                  m m m m N m m m m m N m m m m m m m m m m m m m m m m m m m m m m m m m m m m m m m N m m m m m m m m m m m m m m m m m m m m m m m m m m m m m m m m m m m m m m m m N m m m m m m m m m m m m m m m m m m m N m m N m m m m N m m m m m m m m m m m m m m m m m m m m m m m m m m m m m m m m m m m m m m m m N m m m m                   "
};
