/* XPM */
static char *_c2a0a0bbcde4a83c3e02ae320a688fdce3OOjjvdJu7HZZJ[] = {
/* columns rows colors chars-per-pixel */
"175 20 235 2 ",
"   c None",
".  c #000001",
"X  c #04060A",
"o  c #000A16",
"O  c #000D1B",
"+  c #000710",
"@  c #121212",
"#  c #25231F",
"$  c #000F20",
"%  c #001224",
"&  c #001529",
"*  c #00192A",
"=  c #012B3B",
"-  c #3A3937",
";  c #2D2926",
":  c #201B19",
">  c #493F36",
",  c #4A4037",
"<  c #4A4239",
"1  c #002544",
"2  c #002B45",
"3  c #002E49",
"4  c #00354A",
"5  c #003C4C",
"6  c #003346",
"7  c #00365D",
"8  c #003759",
"9  c #002F59",
"0  c #003A63",
"q  c #003E6B",
"w  c #023764",
"e  c #003F72",
"r  c #00444E",
"t  c #00484F",
"y  c #004B51",
"u  c #004550",
"i  c #005158",
"p  c #01416D",
"a  c #0D466D",
"s  c #004474",
"d  c #004679",
"f  c #004A7C",
"g  c #004874",
"h  c #104C75",
"j  c #2E5B7C",
"k  c #474746",
"l  c #545458",
"z  c #595754",
"x  c #524F4B",
"c  c #695D59",
"v  c #6B615B",
"b  c #595B68",
"n  c #4C4F61",
"m  c #5E606E",
"M  c #5F6271",
"N  c #696767",
"B  c #75726E",
"V  c #636571",
"C  c #696C79",
"Z  c #777778",
"A  c #746865",
"S  c #615F61",
"D  c #827D79",
"F  c #004E82",
"G  c #015086",
"H  c #00538B",
"J  c #015A8C",
"K  c #005691",
"L  c #005A95",
"P  c #005D9B",
"I  c #105686",
"U  c #235B82",
"Y  c #00639D",
"T  c #016597",
"R  c #01749B",
"E  c #126B96",
"W  c #26638C",
"Q  c #2B658A",
"!  c #34728D",
"~  c #3B768F",
"^  c #256995",
"/  c #246D9C",
"(  c #256691",
")  c #3C7891",
"_  c #306E90",
"`  c #0061A2",
"'  c #0066AA",
"]  c #0069AE",
"[  c #006CA5",
"{  c #0078A6",
"}  c #006CB3",
"|  c #006EBC",
" . c #0066B1",
".. c #0072BC",
"X. c #0078B8",
"o. c #1472A5",
"O. c #2372A4",
"+. c #2276AA",
"@. c #2678AB",
"#. c #217BB4",
"$. c #207EBA",
"%. c #2C75A2",
"&. c #005DA2",
"*. c #437B94",
"=. c #497F97",
"-. c #4E7893",
";. c #787981",
":. c #006FC1",
">. c #0073C1",
",. c #047CC7",
"<. c #0084AC",
"1. c #0386AA",
"2. c #0496B7",
"3. c #1795B5",
"4. c #0C8BB1",
"5. c #2182BD",
"6. c #2980B1",
"7. c #3291B2",
"8. c #12A3BD",
"9. c #4D8299",
"0. c #4E889F",
"q. c #54869D",
"w. c #59879E",
"e. c #5C8BA0",
"r. c #4D95B3",
"t. c #618EA3",
"y. c #6596AA",
"u. c #6B9AAD",
"i. c #6993A7",
"p. c #749AAD",
"a. c #769AAD",
"s. c #6C9BB1",
"d. c #769FB1",
"f. c #52A4BE",
"g. c #7BA3B5",
"h. c #7AA5B7",
"j. c #7F8087",
"k. c #0187C9",
"l. c #1F84C3",
"z. c #1288C1",
"x. c #0197C8",
"c. c #0086D4",
"v. c #018AD5",
"b. c #0089D9",
"n. c #0E8ED7",
"m. c #0198D7",
"M. c #1299DC",
"N. c #1A90C9",
"B. c #2084C3",
"V. c #3895CA",
"C. c #01A3DB",
"Z. c #04A8D7",
"A. c #0BAAD7",
"S. c #2AA6DC",
"D. c #38ACD0",
"F. c #01AAE1",
"G. c #18A8E4",
"H. c #02B9E6",
"J. c #14B6E8",
"K. c #25B3EB",
"L. c #4B98C4",
"P. c #48A7DC",
"I. c #55ABDD",
"U. c #50B0CA",
"Y. c #66A9C4",
"T. c #79B4C8",
"R. c #73B1CC",
"E. c #54AEE1",
"W. c #4CACE1",
"Q. c #6EB8E3",
"!. c #02C9EB",
"~. c #01CBF5",
"^. c #17CAF2",
"/. c #01D7FD",
"(. c #16D2F4",
"). c #25CFF5",
"_. c #02E3FD",
"`. c #02EDFF",
"'. c #0DEEFF",
"]. c #1AE7FD",
"[. c #06F3FF",
"{. c #1BF4FF",
"}. c #26E8FE",
"|. c #2CFAFF",
" X c #27F5FF",
".X c #33FBFF",
"XX c #32F7FF",
"oX c #51C2D2",
"OX c #898887",
"+X c #8B8E93",
"@X c #979697",
"#X c #958F8C",
"$X c #A39390",
"%X c #A39892",
"&X c #A5A19E",
"*X c #83A4B5",
"=X c #83ACBD",
"-X c #8CAABA",
";X c #89A7B8",
":X c #92AEBD",
">X c #95B0BF",
",X c #A6A5A7",
"<X c #BABBBB",
"1X c #A8AAB2",
"2X c #8CB2C2",
"3X c #88B9CB",
"4X c #93B5C4",
"5X c #9BB4C2",
"6X c #95BACB",
"7X c #9BBDCC",
"8X c #98B6CD",
"9X c #89B4CA",
"0X c #A3BCC8",
"qX c #9DC2D1",
"wX c #A3C4D3",
"eX c #ABC6D4",
"rX c #ADCAD7",
"tX c #B2CEDB",
"yX c #B7CCD6",
"uX c #B6D1DD",
"iX c #B8D2DF",
"pX c #ACC2CD",
"aX c #B9D5E1",
"sX c #88C2E2",
"dX c #C2C7CC",
"fX c #CBCBCC",
"gX c #C3D5DD",
"hX c #D5D6D6",
"jX c #CDDBE3",
"kX c #C5D8E4",
"lX c #D8DEE2",
"zX c #DAE3E8",
"xX c #C9E2EB",
"cX c #E6E8E9",
"vX c #EFF5F7",
/* pixels */
"                Z @X1X0XfXfXdXdXdXdXdXdXdXdXdXdXdXdXdXdXdXfXdXdXdXdXdXdXdXdXdXdXdXdXdXdXdXdXdXdXdXdXdXdXdXdXdXdXdXdXdXdXdXdXdXdXdXdXdXdXdXdXdXdXdXdXdXdXdXdXdXdXdXdXdXdXdXdXdXdXdXdXdXdXdXdXdXdXdXdXdXdXdXdXdXdXdXdXdXdXdXdXdXdXdXdXdXdXdXdXdXdXdXdXdXdXdXdXdXdXdXdXdXdXdXdXdXdXdXdXdXdXdXdXdXdXdXdXdXdXdXfX<X+X+X+X+X+X+X+X+X+X+X+X+XOXD Z V                 ",
"          C ,XhXlXhX<X&X$X$X$X$X$X$X$X%X$X$X$X$X$X$X$X$X$X$X$X$X$X$X$X$X$X$X$X$X$X$X$X$X$X$X$X%X$X$X$X$X$X$X$X$X$X$X$X$X$X$X$X$X$X$X$X$X$X$X$X$X$X$X$X%X$X$X$X$X$X$X$X$X$X$X%X$X$X$X$X$X%X$X$X$X$X%X$X$X$X$X$X%X$X$X$X$X@X$X$X$X$X$X$X$X$X$X$X$X@X$X$X$X$X$X$X$X$X$X$X$X@X$X$X$X$X%X$X$X$X$X$X%X$X$X$X$X%X#XA c c v v c c v c v v c v A D #X@X+Xj.V           ",
"      M ,XlXhX+X- X X * = = 5 y y y r 2 r u u y 4 6 y t y r 2 r y t y 5 2 y t t y 3 5 y t y 5 1 t t t y 4 4 y t y t 1 r y t y 4 2 t t t y 2 5 i t t t 1 t t t y 6 6 t t y y 2 5 i t y 5 2 y y t y 2 4 y t y u 1 r y t y 6 3 y t t t 2 5 y t y r 1 y y t i 2 3 y u y u 1 5 t t y 5 1 y y y y 1 4 y y y u 1 5 u y i 5 3 i y u i 1 8 u 6 * o @ ; N @X@Xj.m       ",
"    ;.fXcXOX@ . & R !._./.F.^.|..X.X).K.XX.X.XXXK.)..X.X.X}.K.)..X.X|.K.K. X.X.X}.S.^.|..X|.).G.}.XXXX XJ.G. X.X.X].M.(.|.XX X^.M.].|.|.{.M.J.|.XX|.^.M.(. XXX{.J.M.]. X X(.M.J.{. X{.J.n.(.{.{.'.n.F.'.{.'.!.c.!.[.[.`.C.v._.[.[./.v.C.`.`.`.H.k.!.`.`._.v.m._.`._.!.,.H._._._.m.k.~././.~.k.m./././.F.:.H././.~.c.,.~././.J.:.C./.~.~.X.e 2 . : N &X#XC     ",
"  C hXhXz . O R Z.C.Z.D.Q.aXkXjXcXcXcXcXcXzXcXzXcXzXlXzXjXjXlXkXkXkXgXjXjXiXuXuXuXgXuXeXrXrXyXyXwXwXwX0XeXwX6XqX7X7XwX3X9X9X9X6XqXT.T.9XR.T.T.Y.R.Y.Y.Y.f.f.Y.f.U.f.7.f.f.7.D.3.7.7.3.3.8.3.3.3.4.2.2.1.4.4.1.2.<.<.1.<.<.<.{ <.1.{ <.{ [ { { [ { Y R [ T [ [ T Y T Y [ P T Y K ` Y K P P K ` L H P L L &.K L L K P P K P L L ` L K Y P ] X.} T & . k #XOXV   ",
"n ,XfXZ . * A._.!.W.6XjXvXvXvXjX3XsXQ.Q.W.r.@.E.I.E.P.%.L.E.I.E.L.%.P.E.I.W.%.7.W.I.E.L./ V.E.I.W.6.@.P.I.I.V.o.5.P.P.W.B.E S.D.D.S.o.o.S.S.S.B.T 4.K.S.G.{ T n.M.A.Z.T { C.Z.C.<.T k.C.C.m.Y Y m.m.m.k.J X.m.m.m.] H k.m.m.k.H Y v.m.b.X.f X.b.b.v.L H k.b.b.>.F ' b.c.c.] f ,.b.b.c.G L c.v.b...F } b.b.b.P G k.b.b.,.F ` b.c.b.] f >.m.Z.x.<.x.= . k D N b ",
"C &X&X< . f !.Z.Q.gX3X6XkXaXR.%.f &.| :. .F F  .:.:.&.s K | >.| H e &.:.:. .d F } :.| P d P | :.| F f  .:.>.' d H | >.| K d ' | :. .F F } :.>.P s P | >.| G d ] ..>.' d K ..:.| P d ` >.>.} F F } >.>.' g P ..>...K F ' >.>.} f H ..>...P f ` ..,...G G } >.>.] f L ..>.X.L f ] >.,.} F H } ,.>.` d P >.>...K F } >.>.] f L ..>...P f ` x.x.x.T Z.1.. # A N b ",
"m v B - . 2.k._ T.R.3X3Xr.I d K ` L F F H &.P H F F H ` P G F F P &.L F F G ` P H F F L ` P F F F P ` H F F H ` P H F F L &.L F F G &.P H F F K ` L G F F P Y J G F H ` P H F F L ` L F f G P ` H G F H Y P G F F L &.L F F G &.Y G F F K ` L G f F P Y H F F H Y P G F F L ` K G f G P P H F f K ` L G F F L &.H F F H P P G F F L &.K R { 1.2.F.x.. : z x b ",
"b z c # . 2.m.7.7.f.oXD.' s K | } } L g ' } ] } f F } } } ` s P } ] } H d } } } ' d H | } } P s ' } } } F F } } } ' s L } } } K g ] } } } d H }  .} P s ` } } } G F }  .} ' g L } } } L g ' } } ] f G } ] } ` g P } } } H d } } } ' d K } ] | L g ' } ] } F F } } } ' s L } } } H d ] } } ' d H } ] } Y s ` } } } G f } } } ' s P } ] } 3.6.D.D.!.Z.X : c z b ",
"b N Z ; . { [ T R 1.1.f f s g G H G d s f H H F s s F K H f s d H H G g s f H H F s g G H G g s d H H F s s F H H f s d G H G d s f H H f s g G K G d s d H H G s g F H H f s d G K G d s f H K G p s G K G d s d H J G g s f H H f s g G K G d s d H H F g s F H H d s f G H G d s f H H F g d G K G d s d H H G s s F H H d s g H H G 0.0.f.f.x.x.X # B N b ",
"b Z OX- . L T L R J g a F G G s q d G G f p p f G G d q s F G F s p d G G d p p f G F g q g G G f s p f G G d p s F G F s q d G G f p p f G G g p s F G f p p d G G d q s F G F g q d F G f p p f G G g q s F G F s q d G G f q s F G G g q g F G f p p f G F d q s F G F s q d G G d e s f G F g q g G G F s p d G G d q s F F F g 0 _ =XT.T.e.2.x.. ; D D m ",
"M OX@X> . J Y f f g p g G F F d q f F F F s p F F F F w d G F F g p f G G F p s F F F d q f G f F s q F F G f q g F F F g q F F F F p p G G G f q d G F G p p G F F F q s F F F d q f G F F p p G G G f q d F F F g q F F F F q s F F F d q f F F G s p F F F F q g F F F d q f F F F q s F f F f q f F F F p q F F F F q s F F f e j >XqX7X0Xy.k.x.. ; @XOXV ",
"V @X,Xk . f d w a a 9 9 7 0 0 7 7 0 0 0 w w 7 0 0 0 7 w 7 0 0 0 7 7 7 0 0 0 7 8 0 0 w 7 7 7 0 q w 7 7 0 0 0 7 7 w 0 0 0 7 7 7 0 0 7 7 0 0 0 0 7 7 7 0 q 0 7 0 7 w 0 7 7 7 0 q 0 7 0 7 0 0 0 7 7 7 0 0 7 7 7 0 0 w 7 7 7 q 0 7 7 7 0 0 0 7 7 0 0 0 0 7 7 w 0 0 7 7 7 0 0 0 w 7 7 0 0 7 7 8 7 w w 7 7 7 0 0 7 7 7 7 0 0 7 7 8 9 9 a w.5X5X5X0X:Xr.X.] . - ,X@XC ",
"m ,X<Xx . q F 4 9 ! ! a w 8 8 0 0 0 7 7 0 0 0 0 8 7 0 0 0 0 8 7 0 q 0 7 8 0 0 q 0 7 7 0 0 0 7 8 7 0 0 0 7 7 0 0 0 7 7 7 0 q 0 8 7 w 0 0 7 8 7 0 q 0 7 8 7 0 q 0 7 8 0 0 0 7 8 7 0 0 0 7 8 7 0 0 0 7 8 0 q 0 0 8 7 0 0 0 8 8 w q 0 7 8 7 0 0 0 7 8 7 0 q 7 7 8 0 0 q 7 8 7 0 0 0 7 7 0 0 w w 7 7 0 0 0 w 7 7 0 0 0 7 7 0 a j -.p.0XyXeXyX0X5XL.,.c.G . - <X,XV ",
"  OX<XOX. o g q 8 9 j t.q.) ! _ _ _ ! ! ! ! ! ! ! ~ ~ ~ ) ) ~ ) ) *.*.*.*.*.*.=.*.*.=.=.9.9.9.9.9.9.9.9.9.q.q.q.q.w.q.q.q.q.w.q.w.w.e.e.t.t.t.t.t.t.t.t.t.t.t.i.y.i.i.i.i.i.i.i.i.u.u.p.p.u.p.p.p.p.p.p.a.p.a.a.a.g.d.g.d.d.*Xh.g.*X*Xg.*X*X*X;X*X;X;X;X;X;X;X-X;X-X-X-X-X:X:X:X:X:X:X:X5X2X>X5X5X5X5X5X5X5X5X5X5X0X5X0XpXgXgXgXgXgXyXpX2XL...,.Y O . Z <X+Xb ",
"  m OX,Xz . + 9 p 0 8 w j w.t.i.y.y.t.y.y.y.u.y.u.y.u.u.u.u.u.s.p.s.u.s.s.s.s.s.g.g.s.g.s.g.g.h.h.h.h.h.h.h.h.h.h.h.h.=X=X=X=X=X=X=X=X=X=X=X=X=X=X=X=X2X2X2X2X:X2X2X4X2X2X4X4X4X4X4X4X4X6X4X4X4X4X7X6X7X7X7X7X7X7X7X0X7X0XwX0X0X0XwX0XwXwXwXwXwXwXwXwXrXwXrXeXeXeXrXrXrXrXrXtXrXrXtXtXtXtXtXyXuXtXtXtXuXuXuXiXiXiXaXiXiXiXuXuXyX7X9XY.V.,.>...d + . k &X#XV   ",
"    m Z OXS : . O = 8 0 w w s h j W W U W W W W W W W W W W W W W ( W W ( ( W ( ( ( ( ^ ( ( ^ ^ / ^ ^ ^ ^ / ^ / / / / / / / / / / / / / / / / O./ O./ O./ O.O.O.O.O.O.O.O.O.O.+.O.+.+.+.+.+.+.+.+.+.+.@.+.@.#.@.@.@.#.@.#.@.#.@.#.#.#.#.#.#.#.#.#.$.#.#.$.$.#.$.$.$.$.$.$.$.$.B.$.$.5.$.B.$.B.B.5.B.B.B.B.B.B.B.B.B.B.B.B.B.B.l.,.>.| ` H 8 O . @ z #XZ m     ",
"      b N B A x ; @ X o O $ O O o o o o o O o o o o o O o O o O o O O O o O O O O O O O O O O O O O O O O O O O O O O O O O $ O $ $ $ O % $ $ O $ O % $ $ $ $ O $ O % O O % $ $ $ $ $ $ $ $ % $ $ % % & % % $ & & % % & % % & & & & & $ % & & % % & & & & % & & % & & % & & & & & & & & & & & & & & & & & & & & & * * & * * * * * & % o X @ # x N B N b       ",
"            b S c z x < < < > > < < < < < < < < > < < < k < > < < < < < < < < < < < < < < < < < < < < < < < < < < < < < < < < < < < < < < < < < , < < < < < < , < < < < < < < < < < < > < < < < > > < > > > > < > > > > > > > > > > > > < > > > > > > > > > > > < > , > > < > > > > > < < > > > > > < > < > > < < > > > k > > > > > > > x z c c b b           ",
"                  l l l l l l l l l l l l l l l l l l l l l l l l l l l l l l l l l l l l l l l l l l l l l l l l l l l l l l l l l l l l l l l l l l l l l z l l l l l l l l l l l l l l l z l l l l l l l l l l l l l l l l l l l l l l l l l l l l l l l l z l l l l l l l l l l l z l l l l l l l l l l l l l n l l l l l l l l b z z n                   "
};
