/* XPM */
static char *fc19523b82b94e06fd6d249efed6870e0pp5HJWIJ4fqXrpc[] = {
/* columns rows colors chars-per-pixel */
"65 65 164 2 ",
"   c None",
".  c #090607",
"X  c #0F1112",
"o  c #131315",
"O  c #1C1616",
"+  c #161618",
"@  c #1A1719",
"#  c #17181A",
"$  c #1B1A1C",
"%  c #271614",
"&  c #2A1613",
"*  c #2C1A17",
"=  c #241B1B",
"-  c #2D1D1B",
";  c #3B1C13",
":  c #311F1C",
">  c #2E201F",
",  c #31201E",
"<  c #39201A",
"1  c #1E1E21",
"2  c #231F22",
"3  c #291F20",
"4  c #232125",
"5  c #2D2424",
"6  c #26252A",
"7  c #2A272A",
"8  c #2B292C",
"9  c #322524",
"0  c #392622",
"q  c #352827",
"w  c #3B2926",
"e  c #302728",
"r  c #332A2B",
"t  c #3A2D2B",
"y  c #3D312F",
"u  c #2B2D31",
"i  c #342E32",
"p  c #2F3135",
"a  c #323136",
"s  c #3B3333",
"d  c #35343A",
"f  c #39373C",
"g  c #3C393D",
"h  c #5C2407",
"j  c #5A2A0D",
"k  c #45251B",
"l  c #48281D",
"z  c #5D321C",
"x  c #652C0B",
"c  c #66300F",
"v  c #68320F",
"b  c #7A3B0F",
"n  c #613117",
"m  c #603219",
"M  c #68371B",
"N  c #6A3A1D",
"B  c #733A13",
"V  c #7B3E13",
"C  c #472A21",
"Z  c #4B2D24",
"A  c #43322D",
"S  c #4D3028",
"D  c #5B3520",
"F  c #433532",
"G  c #4C3732",
"H  c #463935",
"J  c #4B3A36",
"K  c #443B3B",
"L  c #4B3D3A",
"P  c #513933",
"I  c #523F3A",
"U  c #7C4116",
"Y  c #76431F",
"T  c #7D4319",
"R  c #4A403E",
"E  c #52423E",
"W  c #754524",
"Q  c #7B4622",
"!  c #7A4925",
"~  c #784928",
"^  c #694934",
"/  c #6A4D3D",
"(  c #3D3C42",
")  c #433F40",
"_  c #434144",
"`  c #4C4444",
"'  c #47464A",
"]  c #4B4748",
"[  c #47494C",
"{  c #4D4A4B",
"}  c #524543",
"|  c #5A4743",
" . c #544946",
".. c #5A4A46",
"X. c #544C4C",
"o. c #5A4E4C",
"O. c #56504E",
"+. c #5C514F",
"@. c #4C4D50",
"#. c #544F51",
"$. c #4E5056",
"%. c #565253",
"&. c #5B5354",
"*. c #5E5855",
"=. c #53555A",
"-. c #5C5759",
";. c #57595B",
":. c #5C5B5C",
">. c #63534D",
",. c #6D594E",
"<. c #615654",
"1. c #625956",
"2. c #625956",
"3. c #655E5D",
"4. c #645B5B",
"5. c #695F5D",
"6. c #6A615E",
"7. c #535A64",
"8. c #5A5F61",
"9. c #5D5F62",
"0. c #665F60",
"q. c #5E6163",
"w. c #656262",
"e. c #656767",
"r. c #646463",
"t. c #6C6463",
"y. c #6A6867",
"u. c #646768",
"i. c #6C6768",
"p. c #666969",
"a. c #6A6C6C",
"s. c #6B6B6B",
"d. c #736B67",
"f. c #7B6C65",
"g. c #726D6B",
"h. c #75716F",
"j. c #7A716D",
"k. c #6B6F71",
"l. c #6E7273",
"z. c #717576",
"x. c #737373",
"c. c #787475",
"v. c #7A7877",
"b. c #7C7779",
"n. c #767A7B",
"m. c #7A7B7C",
"M. c #803F11",
"N. c #814011",
"B. c #81451A",
"V. c #83491F",
"C. c #824920",
"Z. c #814E29",
"A. c #86512A",
"S. c #84807E",
"D. c #7C7E83",
"F. c #7E8183",
"G. c #81878F",
"H. c #878989",
"J. c #828584",
"K. c #939BA1",
"L. c #9C9FA3",
"P. c #9EA1A5",
"I. c #9EA6AC",
"U. c #A0A9AF",
/* pixels */
"                                                                                                                                  ",
"                                                                                                                                  ",
"                                                                                                                                  ",
"                                                                                                                                  ",
"                                                                                                                                  ",
"                                                                                                                                  ",
"                                                                                                                                  ",
"                                                    * > > 0 , 9 t 9 0 t > t 9 & &                                                 ",
"                                      * H ` > H X.= ` 6.R y.X.o.n.} X.t.J h.J X.*.F q t - %                                       ",
"                                  , R t j.F.L &.r.> 6.p.J :. .` :.J %.*.J 8.H *.p.} 2.w.H 3.s &                                   ",
"                              w > *.J. .R l.J R e.A O.:.A :. .L z.E 1.3.H 8.y O.p.A *.%.,.z.` J ` -                               ",
"                          & K v.+.y :.{ A p.R H m.H X.:.A ] L L u.` R ] H :.t &.*.t x.+.+.8.A h.e.y K 0                           ",
"                        0 - E :.8.H E k.A X.{ 9 8.y K _ w %.` q _ s t f t { < [ R H 8.J %._ | e.` E 2.A 9 <                       ",
"                      9 u 7 &.5.X.8.A 6.R q K - r > > 4 = 2 = = > O = = = 5 = 4 > 5 a C { t 3.l., <.*.3 p 5 :                     ",
"                    & 9 u 3 i.U.6.%.` , 8 % @ + o o X o + o o + o o o o o o o o o + o O > , %.y <.U.s.5 u y q %                   ",
"                  t &.i u 7 3.J.P.} e + o o X $ $   7     a     d     a   8 6   1 + o o o + O A L.F.0.7 u e 0 F -                 ",
"                  s x.s 6 8 1.l h.g.. # $ + d 6 6   4 8   1 a   1   8 4   6 6   4 8 d # 1 + . i.c.k 1.r 8 7 3.y.q                 ",
"                > - t t u 8 3.N k b.=     8   8 6   6 u   4     4   u 6   6 6   4 u   6     3 b.C M 3.8 u s g.r._ -               ",
"              :  .h.L 5 p 7 *.A.j 5.X.    (         f     d     d     d         d     d     #.0.j Z.2.8 u i X.F , -               ",
"              9 ;.l.v.s u 7 *.Z.v | ) u u 1 ( 4 1 ( 1 6 ( $ u a # f 6 $ ( 2 2 ( 1 6 d $ a 6 K | c Z.<.8 u 5 0 K O.F -             ",
"              - 5 K O.y u 7 2.Z.B P -.    d     a   d     d     a     d         a     a     %.P B Z.4.7 u i c.x.:.K *             ",
"            - t L t > 5 u 7 -.! V Z X.    8   u 8   u     6     6     6   6 u   6     6     ` S V Z.<.7 u q s 5 = -               ",
"            * ] F.n.t.r u 7 *.! T Z L i u 1 ( 4 4 ( 1 6 f 1 u a 1 d 8 1 ( 4 4 ( 1 6 ( $ d 7 K Z V ! &.7 u q A K { t -             ",
"            - g ] { ] e u 7 &.! B.C &.    _         (     (     (     (         (     (     X.C T ~ <.8 u r s.D.l.K *             ",
"            - 9 F F J q u 7 *.! T A ] a u 1 ( 6 2 ( 2 6 ( 1 u a 1 d 8 1 ( 4 4 ( 1 8 f 1 a 6 ` F T ! *.8 u 5 t q t -               ",
"            - g y.c.x.s 8 7 *.Q M.J X.    8   u 6   6 u   6     6     6   6 u   6     6     { L b Q <.7 6 y j.S.x.X.-             ",
"            - q s s y q p 7 &.>.^ #.4.    (         (     (     (     f         f     (     &.#.^ >.*.7 p q X.%.] L >             ",
"            - q H  .<.t 8 7 :.7.7.=.}     d   d d   d     d     a     d   d d   d     d     ` =.7.7.:.7 p 8 w y R t -             ",
"            - s =.8.%.i u 8 *.} } %.X.    d   d d   d     d     d     d   d d   f     d     ] =.E } *.7 u s y.m.l.;.-             ",
"            : * > 5 9 e u 7 &.z h ] 3.                                                      2.X.h n &.8 u q 8 t q q :             ",
"            - H 3.*.4.s u 8 +.W V X.3.                                                      4.X.V W +.8 u r J R X.F *             ",
"            - g =.;.r.y u 8 O.! T X.4.                                                      4.#.V ! %.r u s y.p.a.X.-             ",
"            : 5 e 5 t 7 u 8 #.~ T X.4.                                                      -.X.V ! #.8 p 7 y t 8 5 ,             ",
"            * K 5.o. .t u r #.Q M.} -.                                                      -. .M.Q %.8 8 8 J } o.t               ",
"            - ] p.n.y.i u 7 #.,.,.-.&.                                                      +.-.,.,.&.7 u t -.9.n.` *             ",
"            - t K s q e i 7 -.7.7.$.X.                                                      } =.7.7.-.e p q , q t > -             ",
"            > y } X.E q u 7 %.X.L #.&.                                                      #.#.L X.&.7 8 r t.w.j.<.-             ",
"            > { p.H.n.t u 8 #.m x ` -.                                                      &. .x m #.u u i &.;.;.] -             ",
"            - q ( K s q u 8 #.! T o.*.                                                      &.#.V ! #.8 u e t q q 5 -             ",
"              > t L } r u r #.! T #.&.                                                      #.#.T ! #.r u t 6.t.i. .-             ",
"            -  .e.e.r.r u 8 #.! U o.&.                                                      &.#.N.! o.8 u r p.m.z.:.0             ",
"            5 r g ) s e u 8 #.! V.&.&.                                                      #.&.C.! %.8 u e q s s t >             ",
"            - F F F J t 8 8 %.d.x.9.X.                                                      } 9.x.f.%.7 u q E  .<.+.>             ",
"            9 ;.p.a.:.q u 8 %.8.=.@.]                                                       ` $.=.7.&.8 u i v.a.q.u.q             ",
"            - 7 i s y 8 u 7 %.#.L #.#.                                                      X.#.L #.%.8 u 8 t e 5 q 5             ",
"            , R E H y q u 8 #.D c X.o.                                                      X.o.c D #.r u r >.3.1.F -             ",
"            t a.D.x.-.i u 5 X.~ B.X.X.                                                      X.#.B.! X.6 u q i.l.q.q.q             ",
"            - q i q e e i 6 X.Q V X.X.                                                      ] X.V Y #.7 8 e 5 e q t -             ",
"            9 +.>.1. .q u 6 #./ f.D.+.                                                      o.D.f./ o.5 u i 1.*.t.3.9             ",
"            t ;.:.a.w.q u 8 %.G.I.K.t.                                                      5.K.U.G.%.7 u t -.;.=.[ 9             ",
"            - - - = - 7 u 4 t.K.m.o.Z                                                       C o.b.K.i.5 u 7 - 5 5 > -             ",
"                      q u 5 <.<.l                                                               k +.<.7 u q                       ",
"                      9 q q ;                                                                       ; q 8 9                       ",
"                                                                                                                                  ",
"                                                                                                                                  ",
"                                                                                                                                  ",
"                                                                                                                                  ",
"                                                                                                                                  ",
"                                                                                                                                  ",
"                                                                                                                                  ",
"                                                                                                                                  ",
"                                                                                                                                  ",
"                                                                                                                                  ",
"                                                                                                                                  ",
"                                                                                                                                  "
};
