/* XPM */
static char *_00f61fae47b4fd0d8b38b196dcb748afays2yxP8mGlaRmJ[] = {
/* columns rows colors chars-per-pixel */
"65 65 113 2 ",
"   c None",
".  c #1C2124",
"X  c #1F2628",
"o  c #212122",
"O  c #23272C",
"+  c #252A2E",
"@  c #282A2F",
"#  c #272C30",
"$  c #292D32",
"%  c #2C3135",
"&  c #2E3339",
"*  c #32363C",
"=  c #33393E",
"-  c #313641",
";  c #363A41",
":  c #393E45",
">  c #3B3F48",
",  c #3B4146",
"<  c #3D424A",
"1  c #41464E",
"2  c #41494E",
"3  c #434750",
"4  c #454A52",
"5  c #484D56",
"6  c #4A4E59",
"7  c #495157",
"8  c #4D555C",
"9  c #4E545C",
"0  c #4F555D",
"q  c #4F555E",
"w  c #4C525B",
"e  c #50565E",
"r  c #51595F",
"t  c #505460",
"y  c #515561",
"u  c #525561",
"i  c #525661",
"p  c #525662",
"a  c #535763",
"s  c #515860",
"d  c #515960",
"f  c #525860",
"g  c #535861",
"h  c #535961",
"j  c #525A60",
"k  c #525A61",
"l  c #535A61",
"z  c #535B61",
"x  c #535B62",
"c  c #545B63",
"v  c #545C63",
"b  c #555D63",
"n  c #545864",
"m  c #545965",
"M  c #555B64",
"N  c #565A66",
"B  c #565B66",
"V  c #565B67",
"C  c #575B67",
"Z  c #555C65",
"A  c #565C65",
"S  c #575D66",
"D  c #575F67",
"F  c #545B63",
"G  c #585E67",
"H  c #585F67",
"J  c #565B68",
"K  c #585C68",
"L  c #585D68",
"P  c #585F68",
"I  c #595E6A",
"U  c #5A5F6A",
"Y  c #596069",
"T  c #5A6069",
"R  c #5A6169",
"E  c #5A616A",
"W  c #5B616A",
"Q  c #5B626A",
"!  c #5C626B",
"~  c #5B606C",
"^  c #5C636C",
"/  c #5E636E",
"(  c #5D646D",
")  c #5E656E",
"_  c #5F666F",
"`  c #5F6570",
"'  c #606671",
"]  c #606870",
"[  c #636A72",
"{  c #646C73",
"}  c #656E76",
"|  c #666E77",
" . c #636A78",
".. c #646B78",
"X. c #656C79",
"o. c #666D7A",
"O. c #676E7B",
"+. c #686F7C",
"@. c #677179",
"#. c #687079",
"$. c #687179",
"%. c #68707D",
"&. c #6A717E",
"*. c #6C7480",
"=. c #6D7481",
"-. c #6E7682",
";. c #6F7683",
":. c #717885",
">. c #727A86",
",. c #737C85",
"<. c #747C88",
"1. c #767F88",
"2. c #767E8A",
/* pixels */
"                                                                                                                                  ",
"                                                                                                                                  ",
"                                                                                                                                  ",
"                                                                                                                                  ",
"                                                                                                                                  ",
"                                                                                                                                  ",
"                    6 6 5 6 6 5 u u 5 6 w 6 / w 6 6 6 6 6 6 m w 6 6 6 6 6 6 6 6 6 6 5 t I 6 6 6 6 6 6 6 6 6 6                     ",
"                  6 m m I n t t K U u u u C N u u u u n u t ' m a t n t n t n u n t I ' g t t t t u n t n n C 3                   ",
"                $ : C o.=.;.=.+.+.;.X.+.O.>.O.O.+.+.+.+.+.o.<.+.+.O.O.O.O.O.O.O...:.2.O.O.O.O.O.+.+.+.+.o...w * #                 ",
"                $ * C +.C G W _ o.<.` U / +.! ! W W W / C / 2.U E I E I G I Y z } { z b b z z z r g e e e +.4 * #                 ",
"                $ * ' < = > 4 > : 6 4 1 5 2 : > > > ; ; 6 W 5 ; : ; ; ; ; - * 4 4 & * * * & & & & & $ & O 4 C % #                 ",
"                $ * U 4 5 5 1 1 < 3 < 3 e 5 < < < > 5 W A 1 : < > > < : , ; 5 8 ; : ; ; ; ; = = = = = = & 2 u % #                 ",
"                # = [ w < : > < > 4 6 : 1 4 > : 1 C G 2 : > < > > > : > ; 4 w - ; ; ; ; = = = = * = * * $ 1 e $ $                 ",
"                * 2 W > : > > > > < e < < 1 > e m 4 : > < > > > > : > ; 3 q ; : : ; ; = ; = = = * * * * & 1 e & #                 ",
"                : * g 1 : > > > > : 5 3 ; 6 C 6 > > > > > > > > : > ; 3 t ; : ; ; ; = ; = = = = * * * * $ 1 w % $                 ",
"                @ * u > : : > > : : 1 e 6 e 5 : > > > > > > > : > ; < J : : ; ; ; ; ; = = = = = * * & * $ 1 6 * #                 ",
"                % = u > ; > > > ; > 6 / 1 ; 3 < > > > < : : : : : , r 1 = 1 = = = = = = = = = = * * & * % , 4 * :                 ",
"                @ = w > ; > > ; 3 w 1 4 1 : 1 > : > : : : : > : = w 1 = = = , : : = = = = = * * * * * & & : w 5 *                 ",
"                @ ; w < : = < 6 5 : ; < 4 : < > : : : : : : : ; 4 1 * = : = = = = = = = * * * * * & & & $ 1 G : O                 ",
"                @ * 5 = = 4 w < ; : > ; 6 > > < : : : : : ; : 4 5 = 1 1 = = , = = = = = * = & * * * & & , 1 e * @                 ",
"                @ = 4 < w 3 ; ; : : : ; 4 4 : > : : : : = 1 4 1 = , , 3 1 & * = = = = = = = & * & & = 2 = = 7 * #                 ",
"                @ * N w : * : : ; ; : = 1 5 : > = = = , 1 1 = = : = = = 1 1 = = = = = = & = = & & , < * % 2 4 * #                 ",
"                * e e = = : ; ; ; ; : ; 1 2 : > = 1 4 1 = = : = , = = = = = = , 1 = = * & & & ; 2 ; & $ = 2 < * $                 ",
"                1 ; 1 = = = ; ; ; ; ; = < 2 : > 1 5 1 = = : = : = = : = = = = * * = * * & = 1 1 & & % ; 7 ; < = #                 ",
"                $ * 1 ; ; ; = ; ; ; ; = , 1 1 7 , = = = = : = = = = = = = = = * = * * & 1 2 = % % & 1 5 = & < * $                 ",
"                $ ; 1 = = = = ; ; ; ; = : 4 4 , = = = = = = = = = = = = = * * = * * & 2 , $ & $ = 2 = $ @ * < * $                 ",
"                @ ; < * * ; ; * = = = ; 4 2 , : = : = = = = = = = = = = * = * * * & , , % & % : 1 * $ & & & > * O                 ",
"                @ ; < * = = * ; = & 1 2 = , 1 = = = = = = = = = = = = = = * * * % : , % % & 2 1 % % & & @ & > * $                 ",
"                $ ; > * * * * * * 1 1 * = 1 1 = = = * = = = = = = * * * * * * & = , & % = 2 = % % % % % % % < * @                 ",
"                @ ; : * * * * ; 4 > * = = , = = = = = = * * * * * * * * * & & : : $ & 2 2 & % % % % % % $ % > * @                 ",
"                @ ; > * - & : 3 = & * * = , * : = * = * * * = * * * * & & = 1 = $ : 2 : % % % % % % % % $ % < * @                 ",
"                @ : > & & 1 3 * * * * * * 1 * = = * * * * * * * * & & = < 4 = & , 1 & % & % % % $ % % $ $ $ : = @                 ",
"                @ ; ; % 2 2 % & = & & = = < = & , & & = = & & & = ; , , = @ = 2 ; % % % % % % % $ $ $ % $ $ , * @                 ",
"                @ ; 2 2 , % = = & = & & & < = = = , & & & ; , , > = * % & 1 , & % & % % % % % % $ % $ $ $ $ , = $                 ",
"                * 2 4 = % % * % & & & = % < = & % , , = , , = & & % & = 1 = % % % % % % % % % % $ % $ $ $ $ , * $                 ",
"                % ; ; % & % % & & & & & & = = % & % < , & % & & % = , : % % % % % % % $ % % $ $ $ $ $ $ # @ , * @                 ",
"                @ ; , % & & & * & & & & % = = % % = < , % & % = , : & % % & % % % % $ % % $ % $ $ $ % # # # , & @                 ",
"                @ ; : % % % % % & % & % % = = % = , = < % = , , = % % % % % % % % % $ % $ % # $ $ $ # $ # # , = @                 ",
"                @ ; ; % % % % % & % % % % & = = , % % < < < = % % % % % % % % % % $ $ % % # $ % $ $ # # # $ , = @                 ",
"                @ ; ; % % % % % % % % % % = < & % % & 8 , % % % % % % % % $ $ $ $ $ % $ $ # # $ # # # # # # , & @                 ",
"                $ ; , % % % % % % % % % % = 2 % % % < , % % % % % % $ $ = , % $ % % # # $ # $ # + % # @ @ @ > * @                 ",
"                # = ; # # % % $ % % % % = % & = % < & & * # % % $ % & = ; & & % # # % # # # # # + + + + + @ > * @                 ",
"                $ = , $ % $ % % % # % = # % # = , & # & * # % & & & & % # $ $ & % # # # # # # # + % + + + @ > * @                 ",
"                $ , = $ # % $ $ % % , # % # % 2 * # % # * * & % % $ $ $ $ $ $ $ & $ # # # # + + + + + + + + > * @                 ",
"                # = , $ # % % # % = % # # & , # & % # % $ $ + $ $ $ $ $ # $ # # $ % # # # # # + + + + + O + , * @                 ",
"                # , , # % # # % = % # # = , # # % & # $ $ % $ $ $ $ $ # $ # # # # # # + + # + + + + O + O + < * @                 ",
"                # = , # # # & & # # # = , # # % % & % $ + % $ $ $ $ # # # # # # # + # % # + + # + + + + O + 1 * $                 ",
"                % = , # # % # # # % , & + # # # + @ & + $ + # # # # # # # + # + # # + # % + + X O + X O O @ < * $                 ",
"                & : > @ @ @ @ @ & : % + # # # # # + & % # $ + $ # + + + # + # # + + + O $ $ O O O X + X X # < * @                 ",
"                @ ; 1 @ @ @ @ = & # + # # # # # # + + % + + # + # + # + + + + + + + + + + # + O X + + X X # < - #                 ",
"                @ ; 1 @ + $ * % O # # # + + + + + + + % $ + # # + # + + + + + + + O + + X + + + X + X + O # 1 * $                 ",
"                @ : < o $ & + O + + O + + + + + + O + + O + O + O + O O + O O O O X O X X X O % $ X X X o O 1 * @                 ",
"                $ - 4 , * % % % & % % % % % & & & % & & % % & $ % % % % % % $ % % $ % $ & $ $ $ & # # # # ; 2 * #                 ",
"                $ : ; - * = - = - - - - - - - - - = ; ; - - - - - - - - - - - - = - - - - - - - = ; - * - & - - $                 ",
"                  $ O O O + + X O O O O O O O O + O @ @ O O O O O + + X O O O O + + X # O O O O X + + O # O O $                   ",
"                    o o o o o . o o o o o o o o . o O o . o o o o o o . o o o o o o . . o o o o X . o o . o o                     ",
"                                                                                                                                  ",
"                                                                                                                                  ",
"                                                                                                                                  ",
"                                                                                                                                  ",
"                                                                                                                                  ",
"                                                                                                                                  ",
"                                                                                                                                  ",
"                                                                                                                                  ",
"                                                                                                                                  "
};
