/* XPM */
static char *_843eec622504fccd8b295938bd1c53fdSho74OPZcFEjB5k[] = {
/* columns rows colors chars-per-pixel */
"65 65 128 2 ",
"   c None",
".  c #009DFC",
"X  c #00AFE7",
"o  c #00BDEB",
"O  c #00A4FD",
"+  c #02ACFB",
"@  c #10ABFE",
"#  c #00B4FB",
"$  c #0BB5FC",
"%  c #02BBFA",
"&  c #09BFFB",
"*  c #15BAFC",
"=  c #00CAEF",
"-  c #00CBF0",
";  c #02C3FA",
":  c #0CC4FA",
">  c #00CBF9",
",  c #1EC6FB",
"<  c #1ECAFB",
"1  c #00D4F6",
"2  c #00DBF6",
"3  c #01D3F8",
"4  c #0FD3F9",
"5  c #24C6FB",
"6  c #3CC1FD",
"7  c #30C8FC",
"8  c #24D6FA",
"9  c #2AD2FB",
"0  c #00E4F6",
"q  c #09E5F6",
"w  c #01EBF5",
"e  c #1BEFF6",
"r  c #00F4F4",
"t  c #02FDF3",
"y  c #0CFDF3",
"u  c #11F3F5",
"i  c #14FEF4",
"p  c #1CFEF4",
"a  c #27ECF7",
"s  c #23E2F9",
"d  c #23FEF5",
"f  c #2CFEF6",
"g  c #32FDF6",
"h  c #3BFEF7",
"j  c #48C9FD",
"k  c #60D0FE",
"l  c #66DAFD",
"z  c #71DFFD",
"x  c #4FE6FB",
"c  c #5BEEFA",
"v  c #44FEF7",
"b  c #45FEF9",
"n  c #4CFEF9",
"m  c #50FDF7",
"M  c #5AF6F9",
"N  c #55FEF8",
"B  c #5BFDF9",
"V  c #65E4FC",
"C  c #71EBFC",
"Z  c #63FEFA",
"A  c #6BFEFB",
"S  c #77F5FB",
"D  c #74FEFA",
"F  c #7CFEFB",
"G  c #84EAFD",
"H  c #88E9FD",
"J  c #9AEDFE",
"K  c #83F4FB",
"L  c #8FF7FC",
"P  c #84FEFB",
"I  c #8CFCFC",
"U  c #8BFEFC",
"Y  c #93F5FC",
"T  c #91F6FC",
"R  c #92F6FC",
"E  c #95F5FC",
"W  c #96F5FC",
"Q  c #96F4FD",
"!  c #96F5FD",
"~  c #96F7FC",
"^  c #9AF1FD",
"/  c #99F3FD",
"(  c #9AF3FD",
")  c #9EF2FD",
"_  c #9FF3FD",
"`  c #9FF1FE",
"'  c #98F4FD",
"]  c #99F4FD",
"[  c #9BF6FD",
"{  c #9CF4FD",
"}  c #91FBFC",
"|  c #95F8FC",
" . c #95F9FC",
".. c #93FEFC",
"X. c #9DF8FD",
"o. c #9BFEFD",
"O. c #A7EEFE",
"+. c #A0F3FD",
"@. c #A1F3FD",
"#. c #A2F1FE",
"$. c #A2F2FE",
"%. c #A3F2FE",
"&. c #A4F1FE",
"*. c #A5F2FE",
"=. c #A6F3FE",
"-. c #A0F5FD",
";. c #A1F7FD",
":. c #A4F6FD",
">. c #A5F4FE",
",. c #A5F5FE",
"<. c #A7F6FE",
"1. c #A8F2FE",
"2. c #A8F3FE",
"3. c #AAF2FE",
"4. c #ABF3FE",
"5. c #A8F4FE",
"6. c #ACF4FE",
"7. c #AFF4FE",
"8. c #A2FEFE",
"9. c #B0F3FE",
"0. c #B2F2FE",
"q. c #B1F4FE",
"w. c #B1F6FE",
"e. c #B2F6FE",
"r. c #B4F4FE",
"t. c #B9F7FE",
"y. c #BBF6FE",
"u. c #BCF5FE",
/* pixels */
"                                                                                                                                  ",
"                                                                                                                                  ",
"                                                                                                                                  ",
"                                                                                                                                  ",
"                                                                                                                                  ",
"                                                                                                                                  ",
"                                                                                                                                  ",
"                                                                                                                                  ",
"                                                                                                                                  ",
"                                                                                                                                  ",
"                                                                  . .                                                             ",
"                                                                  O @ O                                                           ",
"                                                                + O 6 k O                                                         ",
"                                                              + + + $ u.j + +                                                     ",
"                                                            # # # # $ O.0.* +                                                     ",
"                                                          % # # # # 7 e.y.l # %                                                   ",
"                                                        % % & z , 5 J 0.0.J % % %                                                 ",
"                                                      ; ; : H y.*.4.6.4.4.4.< ; ;                                                 ",
"                                                    ; ; ; G e.@.4.*.*.*.*.6.9 ; ;                                                 ",
"                                                  > > > V e.@.@.@.@.@.*.@.5.8 > >                                                 ",
"                                                  3 > 8 @._ _ @.@.@.@._ @./ 4 > 3                                                 ",
"                                                1 3 1 x <./ _ [ _ / [ / <.S 3 3 3                                                 ",
"                                            X     2 2 x <.E ] ] ] ] / / @.8 2 2 2                                                 ",
"                                          o o     2 2 s ] W W W E E Y ;.M 2 2 2 2                                                 ",
"                                          = - =   0 0 0 c [ T T Y Y  .K q 0 0 0                                                   ",
"                                          2 2 1     w 0 w S | L L L E a 0 w 0 w                                                   ",
"                                          0         w w w e L L I  .M w w w w w                                                   ",
"                                                      r r r M L P K u r r r r                                                     ",
"                                                      r t r g I I M t r r r r                                                     ",
"                                                    t t t t f U U f t t t t                                                       ",
"                                                    t y t t N P F p t t t t                                                       ",
"                                                y t t t t h P P F p t y y y             y                                         ",
"                                                i m h g B P F P P d y i y y i         y y                                         ",
"                                        i i   i i F U P P F P P U b y p i p i i i i p p f i                                       ",
"                                        d p p p d F P F P P P P P D p p d p p d p d i v N i                                       ",
"                                        g g p p v U F P P P P P P P Z d p d d d d p f P v                                         ",
"                                        h F h m P P P P P P P P P P U D n f f f f v F D f                                         ",
"                                        f A ..P P P P P P U P P P P P U U P D A F U P h f                                         ",
"                                        g h F U U U U P P P P P P U P P P U I I U U Z g h                                         ",
"                                          h A U P P U U U P U U P U U P U U P U P U m h v h                                       ",
"                                          b D I U U U U U U U U U U U U U U U U U U m v n b                                       ",
"                                          n P I U U U U U U U U U U U U U U U U U } Z v n n                                       ",
"                                        m Z ......U U ......U U U U ..U U } ..U U ..F m N N                                       ",
"                                        N D o.U U ........U ............} } } ......U Z B B                                       ",
"                                        B P o.........................................D B Z                                       ",
"                                        A ..o.......o...o.....o.o...o...o.......o...o.D Z A                                       ",
"                                        A ..o...o.o.o.o.o.o.o.o.o.o.o...o.o.o.o.o.o.o.F A A                                       ",
"                                          ..8.o.o.o.o.o.o.o.o.o.o.o.o.o.o.o.o.o.o.o.o.D D F                                       ",
"                                          P o.8.o.8.8.8.o.8.o.8.8.8.8.8.8.8.8.o.o.8.I F F                                         ",
"                                            U 8.8.8.8.8.8.8.8.o.I P U ..o.8.8.8.8...P P P                                         ",
"                                              I o.8.8.8.8.o...U U U P U I ......U U U U                                           ",
"                                                I ..........I ....I ............I ..                                              ",
"                                                    ..o.o...o.          ..o.o...                                                  ",
"                                                                                                                                  ",
"                                                                                                                                  ",
"                                                                                                                                  ",
"                                                                                                                                  ",
"                                                                                                                                  ",
"                                                                                                                                  ",
"                                                                                                                                  ",
"                                                                                                                                  ",
"                                                                                                                                  ",
"                                                                                                                                  ",
"                                                                                                                                  ",
"                                                                                                                                  "
};
