/* XPM */
static char *_8b95de1f9f746a1f4f6ea06790d36448nM2QK2o5uCJ4RX1[] = {
/* columns rows colors chars-per-pixel */
"65 65 60 1 ",
"  c None",
". c #00A3FC",
"X c #00ACFC",
"o c #00B4FB",
"O c #00BCFA",
"+ c #01C5F6",
"@ c #01CEF5",
"# c #00C4FA",
"$ c #01CCF9",
"% c #01D3F5",
"& c #01DDF6",
"* c #0FDDF7",
"= c #01D2F8",
"- c #09D7F8",
"; c #10D3F9",
": c #20CDFA",
"> c #30D1FB",
", c #01E4F5",
"< c #01ECF3",
"1 c #01F4F3",
"2 c #01FDF2",
"3 c #0AFEF3",
"4 c #10F2F5",
"5 c #13FEF3",
"6 c #1BFEF4",
"7 c #24ECF7",
"8 c #2FF4F7",
"9 c #23FEF5",
"0 c #2BFEF6",
"q c #32FEF6",
"w c #3DFDF6",
"e c #43EEF9",
"r c #56E6FB",
"t c #43FEF7",
"y c #4BFDF7",
"u c #44FEF8",
"i c #4DFEF8",
"p c #54FEF9",
"a c #5BFEFA",
"s c #60EDFA",
"d c #76E7FC",
"f c #60FBF7",
"g c #6EF0FB",
"h c #63FEF9",
"j c #6DFDFA",
"k c #75F5FB",
"l c #74FEFA",
"z c #7CFEFB",
"x c #86ECFD",
"c c #8CF3FC",
"v c #84FEFC",
"b c #8CFEFC",
"n c #9DF3FD",
"m c #93FEFC",
"M c #9AFEFC",
"N c #A1FCFD",
"B c #ACF9FE",
"V c #B1F6FE",
"C c #B2F9FE",
"Z c #BEFAFE",
/* pixels */
"                                                                 ",
"                                                                 ",
"                                                                 ",
"                                                                 ",
"                                                                 ",
"                                                                 ",
"                                                                 ",
"                                                                 ",
"                                                                 ",
"                                                                 ",
"                                 ..                              ",
"                                XXX                              ",
"                               XXXX                              ",
"                              ooooo                              ",
"                             oOOOOO                              ",
"                             #OOO#O                              ",
"                             ##:>###                             ",
"                            +$#dx#$$                             ",
"                            @=@nV;@=@                            ",
"                            %--nZr%-=                            ",
"                             &&cCN*%&                            ",
"                             &,rBBg&&,                           ",
"                              ,7NnBe,,,                          ",
"                              ,<kNMM7<<                          ",
"                        <1     18Nmnb41<                         ",
"                        111    11vMbMg11                         ",
"                        222     1ymbbMu22                        ",
"                       2222     26bbbbb92                        ",
"                       3563     33lbvvml33                       ",
"                      53wl5     53hmvbvmw3                       ",
"                     666lm05    65fmvbvml66                      ",
"                     96pmbt6999999jbbbvbmw6                      ",
"                    09wbvma900009qvbbvbbmh9                      ",
"                    qqlbvbzw0qq0qlbbbbbvvvqq                     ",
"                   wqambmvblywtylbbbbbbbbbuq                     ",
"                   wtbbbbmbbmvvmmbbbbbbbbbpw                     ",
"                   tfmbbbbbbbbbbbbbbbbbbbmau                     ",
"                   ilmbmmbbmmbmbbmbbbbbmbmay                     ",
"                   pvmbmmbmmmbmmmmmmmbmmmbap                     ",
"                   avmmmmmmmmmmmmmmmmmmmmvaf                     ",
"                   hvMmmmMmmmmmmmmmmmMmmMlh                      ",
"                   jzMMMMMMMMMMMMMMMmMMMvjj                      ",
"                   llmMMMMMMMMmmmMMMMNMbll                       ",
"                    zbMNNNMmbzzzzvvmmbbzvz                       ",
"                     vbmmmbvvvbvvvvvvvvvv                        ",
"                      bbbbbbbbbbbmbmbbmb                         ",
"                       mmMmMmmmmmmmmmm                           ",
"                                                                 ",
"                                                                 ",
"                                                                 ",
"                                                                 ",
"                                                                 ",
"                                                                 ",
"                                                                 ",
"                                                                 ",
"                                                                 ",
"                                                                 ",
"                                                                 ",
"                                                                 ",
"                                                                 ",
"                                                                 ",
"                                                                 ",
"                                                                 ",
"                                                                 ",
"                                                                 "
};
