/* XPM */
static char *b56a600a10d54ae080179ff90fd99e42XcClN76nYg5GOUK2[] = {
/* columns rows colors chars-per-pixel */
"65 65 76 1 ",
"  c None",
". c #019DF9",
"X c #01ACE4",
"o c #00B9E9",
"O c #00A3FD",
"+ c #00ACFC",
"@ c #01B4FB",
"# c #01BBFA",
"$ c #24BFFC",
"% c #00C6EE",
"& c #02C5F7",
"* c #02CCF7",
"= c #00C3FA",
"- c #0FC2FB",
"; c #00CAF8",
": c #0ACFF9",
"> c #15CDFA",
", c #18CAFA",
"< c #00D3F4",
"1 c #01DBF6",
"2 c #01D2F8",
"3 c #33D3FB",
"4 c #00E4EF",
"5 c #01E3F5",
"6 c #01ECF4",
"7 c #00EEFA",
"8 c #1FEEF6",
"9 c #00F4F4",
"0 c #02FDF3",
"q c #0AFEF3",
"w c #00F8FC",
"e c #12F7F5",
"r c #13FEF4",
"t c #1BFEF5",
"y c #23EFF7",
"u c #2DE3F9",
"i c #2AF4F6",
"p c #23FEF5",
"a c #2DFEF6",
"s c #35FEF6",
"d c #3BFEF7",
"f c #3DFEF8",
"g c #4ED2FC",
"h c #57D8FC",
"j c #52E0FB",
"k c #52ECFA",
"l c #5DE8FB",
"z c #43FEF7",
"x c #48FEF7",
"c c #40FEF8",
"v c #4DFEF8",
"b c #56F0FA",
"n c #5CF1FA",
"m c #53FEF9",
"M c #5BFEF9",
"N c #6EEEFC",
"B c #62FEFA",
"V c #6BFEFA",
"C c #74FDFB",
"Z c #7BFEFB",
"A c #84EDFC",
"S c #8DEBFD",
"D c #9FEDFE",
"F c #8CF3FD",
"G c #85FEFB",
"H c #8CFEFC",
"J c #96F5FD",
"K c #9CF6FE",
"L c #93FDFC",
"P c #9BFEFD",
"I c #A4F5FE",
"U c #ACF4FE",
"Y c #A3FEFE",
"T c #AAFCFE",
"R c #B4F6FE",
"E c #BCF8FE",
/* pixels */
"                                                                 ",
"                                                                 ",
"                                                                 ",
"                                                                 ",
"                                                                 ",
"                                                                 ",
"                                                                 ",
"                                                                 ",
"                                                                 ",
"                                                                 ",
"                                    .                            ",
"                                    OO                           ",
"                                   ++O                           ",
"                                  +++++                          ",
"                                 @@@,@@                          ",
"                                ##@gD@#@                         ",
"                               ###hEU-##                         ",
"                             &=&3SERU,==                         ",
"                            &&3SRRUUU,&;                         ",
"                           *;jEUUUUUK:**                         ",
"                          222JUIIUIUA222                         ",
"                          212FIIIIIUl21                          ",
"                         1111NTKKKKIu11                          ",
"                         5555kIKKKYF555                          ",
"                        55565nYJKLYk55                           ",
"                      X 4yy6yFLJLJJ866                           ",
"                     oo  iLZJLFLFLN969    6                      ",
"                     %%  eFLHHHHGPz990    9                      ",
"                    <<<  0BHGGHHGGt000   000                     ",
"                    415  0aLGGGGHC00000  0r0                     ",
"                     77   qZHGGGLV0qq0qqq0vtq                    ",
"                      w   qvLGGGHVqrrrrrrqCfq                    ",
"                          raHGGGGZttttttttGMr                    ",
"                          tpZHHGGLxrpttprzLVtp                   ",
"                          atVHGHGGGdppppaZHGap                   ",
"                      a  saaBHHGGHHGvsszZHGGsa                   ",
"                     sssssssVLHHHHGLLGGLLGHHzs                   ",
"                     fzdfffsZHGHHHHGGHLGHHHHvd                   ",
"                     zCxfzdMHHHHHHHHLGHHHHGLmc                   ",
"                     vHGBMCHLHLHLHLHHLHHHHLHMx                   ",
"                     MHLLLPLHLLHLHLLLLHLLHLHMv                   ",
"                     MLLLLLLLLLLLLLLLLLLLLLLMM                   ",
"                     BLLLLPLLLLLPLLLPLLLPLPGMB                   ",
"                     BHPPLPPPPPPPLPPLPPPLLPGBV                   ",
"                     VGPPPPPPPPPPPPPPPPPPPPZV                    ",
"                      ZPYPPPPYPPPPPPPYPYPYHCC                    ",
"                      ZGTPPYYYPYYPYPYPYPYYGZ                     ",
"                       GLTTYYTYTTTTTTTTYYGGG                     ",
"                        GPTTTTTTPLPPPYYLHHG                      ",
"                         LLPPYPLLLHLLLLLL                        ",
"                           LLL       PP                          ",
"                                                                 ",
"                                                                 ",
"                                                                 ",
"                                                                 ",
"                                                                 ",
"                                                                 ",
"                                                                 ",
"                                                                 ",
"                                                                 ",
"                                                                 ",
"                                                                 ",
"                                                                 ",
"                                                                 ",
"                                                                 "
};
