/* XPM */
static char *bdf78e2839464462dbe4fe0ecb1b9d2f2sHHVZu35GhALdhn[] = {
/* columns rows colors chars-per-pixel */
"65 65 129 2 ",
"   c None",
".  c #019FFB",
"X  c #01AAE4",
"o  c #01B8E7",
"O  c #00B9EA",
"+  c #00A4FD",
"@  c #00ACFC",
"#  c #00B4FB",
"$  c #00BBFB",
"%  c #0FBAFB",
"&  c #14BAFC",
"*  c #01C6EC",
"=  c #00C9EE",
"-  c #01C2F7",
";  c #00CBF4",
":  c #00C3FA",
">  c #00CAF9",
",  c #0BCCFA",
"<  c #00D4F5",
"1  c #00DCF7",
"2  c #0BDBF7",
"3  c #00D3F8",
"4  c #09D5F8",
"5  c #19D6F9",
"6  c #1BDDF9",
"7  c #27CEFB",
"8  c #38D0FC",
"9  c #30DBFA",
"0  c #06F8EE",
"q  c #0CF9EF",
"w  c #00E5F6",
"e  c #01EBF5",
"r  c #00E7F8",
"t  c #00EEF9",
"y  c #1AEEF6",
"u  c #01F2F4",
"i  c #02FDF3",
"p  c #0BFEF4",
"a  c #00F3FC",
"s  c #13FEF4",
"d  c #1DFEF4",
"f  c #38E0FA",
"g  c #3DEEF8",
"h  c #29F6F6",
"j  c #23FEF5",
"k  c #2CFEF6",
"l  c #34FEF6",
"z  c #3BFEF6",
"x  c #45CEFC",
"c  c #46D4FC",
"v  c #4CDFFB",
"b  c #49E1FB",
"n  c #56EEFA",
"m  c #5EE8FB",
"M  c #43FEF7",
"N  c #41F3F8",
"B  c #42FEF8",
"V  c #4BFEF9",
"C  c #5FFBF7",
"Z  c #58F1F9",
"A  c #54FEF9",
"S  c #5BFEF9",
"D  c #60E5FB",
"F  c #6EE8FC",
"G  c #75E4FD",
"H  c #76E9FC",
"J  c #7BEAFC",
"K  c #64FEFA",
"L  c #6BFEFB",
"P  c #73FEFA",
"I  c #7BFEFB",
"U  c #83E5FD",
"Y  c #80EAFD",
"T  c #83EAFD",
"R  c #83EBFD",
"E  c #84EAFD",
"W  c #89EDFD",
"Q  c #8CECFD",
"!  c #8DECFD",
"~  c #8EECFD",
"^  c #8FEDFD",
"/  c #98EEFE",
"(  c #9AEEFE",
")  c #9EEFFE",
"_  c #85FEFC",
"`  c #8BFEFB",
"'  c #8CFEFD",
"]  c #92FEFC",
"[  c #96FDFD",
"{  c #96FEFC",
"}  c #95FEFC",
"|  c #99FEFC",
" . c #99FEFD",
".. c #9AFEFC",
"X. c #9BFEFC",
"o. c #9AFEFD",
"O. c #9BFEFD",
"+. c #9BFFFD",
"@. c #9CFEFD",
"#. c #9EFEFD",
"$. c #9FFEFD",
"%. c #9EFFFD",
"&. c #9BFEFC",
"*. c #A3F0FE",
"=. c #A2F1FE",
"-. c #ACF1FE",
";. c #A0FEFD",
":. c #A3FEFD",
">. c #A1FDFE",
",. c #A4FEFD",
"<. c #A5FFFD",
"1. c #A6FEFD",
"2. c #A7FEFD",
"3. c #A6FDFE",
"4. c #A2FEFE",
"5. c #A9FEFD",
"6. c #ABFEFD",
"7. c #A9FDFE",
"8. c #AEFDFE",
"9. c #B3F5FE",
"0. c #B5F5FE",
"q. c #B1FBFE",
"w. c #B0FDFE",
"e. c #B4FCFE",
"r. c #B4FDFE",
"t. c #B6FCFE",
"y. c #BDFCFE",
"u. c #CFFDFF",
"i. c #D2FFFF",
/* pixels */
"                                                                                                                                  ",
"                                                                                                                                  ",
"                                                                                                                                  ",
"                                                                                                                                  ",
"                                                                                                                                  ",
"                                                                                                                                  ",
"                                                                                                                                  ",
"                                                      X                                                                           ",
"                                                    O O O                                                                         ",
"                                                  * = = =                                                                         ",
"                                                  < 1 < <                                                                         ",
"                                                  w r r w     . +                                                                 ",
"                                                    a a       + + +                                                               ",
"                                                              @ @ @ + @                                                           ",
"                                                            @ @ @ @ # @ @                                                         ",
"                                                          # # # & & @ # # #                                                       ",
"                                                        # # $ # x -.& $ # $ #                                                     ",
"                                                      $ $ $ $ # U u.U # $ $ $                                                     ",
"                                                    $ $ : $ $ c 9.=.0.8 $ : $ $                                                   ",
"                                                $ : > > > : 7 ) ( / =.G : : : - -                                                 ",
"                                                > > > > > , R ^ Q Q ^ E , > > > >                                                 ",
"                                              ; > > > > > b W J H J T J 4 > > > > >                                               ",
"                                              3 3 3 3 3 3 D H f 4 5 F b 3 3 3 3 3 3                                               ",
"                                              3 3 3 3 3 4 9 D < 3 3 6 4 3 3 3 3 3 <                                               ",
"                                              < 1 1 1 1 1 1 6 2 1 1 1 1 3 1 3 1 1 <                                               ",
"                                                1 1 1 1 1 1 1 1 1 1 1 1 1 w 1 1 1 1                                               ",
"                                    X             w w w w 1 n n w w w w w w r w w w                                               ",
"                                    O o             w w w w g i.n w w e r e w w e w                                               ",
"                                  = = =             e e e e N y.w.y e e e e e e e e                                               ",
"                                  1 1 1             e u u u P e.t.N e u e u   u u                                                 ",
"                                  t t e             u u u h 8.3.t.V u u u                                                         ",
"                                          i         i i s [ 7.>.8.M i i                                                           ",
"                                        i i i i 0 0 0 q ` 5.;.;.7.z i i                                                           ",
"                                      0 i p i i 0 0 k | 2.X.X.X.5.V i p i             p                                           ",
"                                    q p p p p p i M X.X.| X.X.X.:.P i p p             p                                           ",
"                                    s p s p s q A 3.X.| X.X.X.X...$.z i s p s     p s s s                                         ",
"                                  s s d s d p M :.{ { ..X.} X.} | | %.S j s s d d s s s d                                         ",
"                                  d d d d d d P :...$...} X.} X.{ | ..P l d d d d d d d d                                         ",
"                                    j j j j d K } K K _ X.} } } ..{ M s d j j j j j j j j                                         ",
"                                    j k k j k k l d d l ` } } } $.P j k k k j k j k k j k                                         ",
"                                        k l k k k l l j L X.} } $.P k l l l k l k l k k                                           ",
"                                            l l l l l l P X.} } { ` l l l l l l l l l l                                           ",
"                                              z z z l M ` | } } } ..P z l l l M M z z z z                                         ",
"                                              M M M z P X.} } } } } .._ C C C } P z M M M                                         ",
"                                      M     V V M M K ..} } { { } } } | | | X.} | C M V V V                                       ",
"                                    V V     A V V C ....} { { { } } } } } } } } | ` V V V V                                       ",
"                                    A A A A A A S ] ..} ..} { { | | } | | | } } } | C A A A                                       ",
"                                    S S S S S A _ ..} ....} { [ | } | } | } | } } X.P A C A                                       ",
"                                    K S S K S I %.| | | X.[ | X.....[ X.| | | | | %.I S K S C                                     ",
"                                    L L K L L [ %.| | | X.X.| %.......X.| | %.| | %._ K L L K                                     ",
"                                    L L L L I %.X.X.%.%.%.%.| %.%.X.X.#.%.%.| %.%.%._ L L L L                                     ",
"                                    P P P L _ >.#.%.%.%.%.%.%.%.#.#.#.#.%.%.%.%.%.>._ P P P                                       ",
"                                      I I P _ 3.#.>.>.>.%.>.>.%.>.:.$.$.>.%.>.>.>.%.I P I I                                       ",
"                                      I I _ I | 3.>.>.>.>.>.>.3.>.$.>.>.3.3.>.3.>.' I _ I _                                       ",
"                                        _ _ _ _ | 3.3.3.3.3.3.| ' _ ` ' | >.3.>.' _ _ _ _                                         ",
"                                          ' ' ' ' ] | >.>.| ' ' ' ' ' ' ' ' ' ' ' ' ' '                                           ",
"                                            ] ] ] ] ' ] ] ] ] ] ' ] ] ] [ ] ] ] ] ] '                                             ",
"                                                  | | | | [             [ [ [ [                                                   ",
"                                                                                                                                  ",
"                                                                                                                                  ",
"                                                                                                                                  ",
"                                                                                                                                  ",
"                                                                                                                                  ",
"                                                                                                                                  ",
"                                                                                                                                  "
};
